<svg width="140" height="140" viewBox="0 0 140 140" fill="none" xmlns="http://www.w3.org/2000/svg">
<circle cx="70" cy="70" r="70" fill="#0088D3"/>
<path d="M106.013 72.469C106.013 52.863 90.064 36.912 70.46 36.912C50.856 36.912 34.908 52.863 34.908 72.469C34.908 87.72 44.56 100.755 58.075 105.795C56.757 106.363 55.83 107.673 55.83 109.197V110.211C55.83 111.167 56.204 112.031 56.801 112.689C56.204 113.347 55.83 114.211 55.83 115.168V116.182C55.83 118.224 57.492 119.886 59.534 119.886H81.383C83.426 119.886 85.089 118.224 85.089 116.182V115.168C85.089 114.212 84.715 113.347 84.117 112.689C84.715 112.031 85.089 111.167 85.089 110.211V109.197C85.089 107.673 84.162 106.363 82.844 105.795C96.36 100.756 106.013 87.721 106.013 72.469ZM67.93 66.576H72.987V75.554H67.93V66.576ZM66.73 75.553H63.101C60.623 75.553 58.608 73.539 58.608 71.064C58.608 68.589 60.624 66.575 63.101 66.575H66.73V75.553ZM72.987 77.534V86.513H67.93V77.534H72.987ZM74.187 77.534H78.068C80.546 77.534 82.562 79.549 82.562 82.025C82.562 84.5 80.546 86.513 78.068 86.513H74.187V77.534ZM72.987 88.494V105.306C72.152 105.369 71.311 105.412 70.46 105.412C69.608 105.412 68.766 105.369 67.93 105.306V88.494H72.987ZM82.639 116.182C82.639 116.873 82.076 117.435 81.383 117.435H59.534C58.843 117.435 58.281 116.873 58.281 116.182V115.168C58.281 114.477 58.843 113.915 59.534 113.915H81.383C82.075 113.915 82.639 114.477 82.639 115.168V116.182ZM81.384 107.943C82.076 107.943 82.64 108.505 82.64 109.197V110.211C82.64 110.902 82.077 111.465 81.384 111.465H59.535C58.844 111.465 58.282 110.902 58.282 110.211V109.197C58.282 108.506 58.844 107.943 59.535 107.943H81.384ZM74.187 105.195V88.494H78.068C81.638 88.494 84.543 85.591 84.543 82.025C84.543 78.457 81.639 75.554 78.068 75.554H74.187V66.576H83.552C84.099 66.576 84.542 66.132 84.542 65.585C84.542 65.038 84.099 64.594 83.552 64.594H74.187V60.657C74.187 60.326 73.918 60.057 73.587 60.057C73.256 60.057 72.987 60.326 72.987 60.657V64.594H67.93V60.657C67.93 60.326 67.661 60.057 67.33 60.057C66.999 60.057 66.73 60.326 66.73 60.657V64.594H63.101C59.531 64.594 56.627 67.497 56.627 71.064C56.627 74.63 59.531 77.533 63.101 77.533H66.73V86.512H57.617C57.07 86.512 56.627 86.956 56.627 87.503C56.627 88.05 57.07 88.494 57.617 88.494H66.73V105.195C50.318 103.336 37.521 89.373 37.521 72.469C37.521 54.303 52.298 39.524 70.46 39.524C88.624 39.524 103.4 54.303 103.4 72.469C103.401 89.374 90.602 103.337 74.187 105.195Z" fill="#F4F4F4"/>
<path d="M96.37 64.102C96.287 63.809 95.984 63.639 95.692 63.72C95.4 63.802 95.229 64.106 95.311 64.398C95.91 66.537 96.214 68.759 96.214 71.002C96.214 71.306 96.46 71.552 96.764 71.552C97.068 71.552 97.314 71.306 97.314 71.002C97.313 68.659 96.995 66.337 96.37 64.102Z" fill="#F4F4F4"/>
<path d="M93.8661 58.167C93.6961 57.916 93.353 57.85 93.102 58.021C92.851 58.193 92.786 58.5341 92.956 58.7861C93.228 59.1861 93.878 60.4901 94.021 60.8901C94.102 61.1141 94.313 61.254 94.539 61.254C94.601 61.254 94.663 61.2441 94.724 61.2221C95.01 61.1201 95.159 60.8051 95.057 60.5191C94.885 60.0391 94.1921 58.649 93.8661 58.167Z" fill="#F4F4F4"/>
<path d="M71.768 45.4561C71.464 45.4561 71.218 45.7021 71.218 46.0051C71.218 46.3081 71.464 46.5551 71.768 46.5551C79.188 46.5551 86.121 49.8681 90.788 55.6461C90.896 55.7811 91.056 55.8511 91.216 55.8511C91.337 55.8511 91.459 55.8101 91.561 55.7281C91.797 55.5381 91.834 55.1921 91.643 54.9551C86.766 48.9191 79.522 45.4561 71.768 45.4561Z" fill="#F4F4F4"/>
<path d="M101.966 102.888C101.59 102.512 100.981 102.512 100.605 102.888C100.229 103.264 100.229 103.874 100.605 104.25L106.058 109.702C106.246 109.89 106.493 109.984 106.739 109.984C106.985 109.984 107.232 109.89 107.42 109.702C107.796 109.326 107.796 108.716 107.42 108.34L101.966 102.888Z" fill="#F4F4F4"/>
<path d="M115.424 97.587L108.669 93.6869C108.208 93.4209 107.62 93.58 107.354 94.04C107.088 94.5 107.246 95.089 107.706 95.354L114.461 99.2539C114.613 99.3419 114.778 99.383 114.941 99.383C115.274 99.383 115.597 99.211 115.775 98.902C116.042 98.442 115.884 97.853 115.424 97.587Z" fill="#F4F4F4"/>
<path d="M120.393 85.122L112.783 83.083C112.269 82.946 111.742 83.25 111.604 83.764C111.466 84.278 111.771 84.8061 112.285 84.9431L119.895 86.9821C119.978 87.0051 120.062 87.015 120.145 87.015C120.57 87.015 120.959 86.7321 121.074 86.3021C121.211 85.7881 120.907 85.259 120.393 85.122Z" fill="#F4F4F4"/>
<path d="M121.961 71.777H114.06C113.528 71.777 113.098 72.208 113.098 72.739C113.098 73.27 113.529 73.701 114.06 73.701H121.961C122.493 73.701 122.923 73.27 122.923 72.739C122.923 72.208 122.493 71.777 121.961 71.777Z" fill="#F4F4F4"/>
<path d="M111.604 61.714C111.719 62.144 112.108 62.427 112.533 62.427C112.616 62.427 112.699 62.417 112.783 62.394L120.535 60.317C121.049 60.18 121.353 59.651 121.216 59.138C121.078 58.624 120.552 58.319 120.037 58.457L112.285 60.535C111.771 60.673 111.466 61.202 111.604 61.714Z" fill="#F4F4F4"/>
<path d="M107.354 51.441C107.532 51.75 107.856 51.923 108.188 51.923C108.351 51.923 108.517 51.881 108.668 51.793L115.658 47.757C116.118 47.491 116.276 46.902 116.01 46.442C115.744 45.982 115.156 45.823 114.695 46.09L107.705 50.127C107.246 50.392 107.089 50.981 107.354 51.441Z" fill="#F4F4F4"/>
<path d="M101.289 42.872C101.536 42.872 101.782 42.778 101.97 42.59L107.691 36.867C108.067 36.491 108.067 35.881 107.691 35.506C107.315 35.13 106.706 35.131 106.33 35.506L100.609 41.23C100.233 41.606 100.233 42.216 100.609 42.591C100.797 42.778 101.043 42.872 101.289 42.872Z" fill="#F4F4F4"/>
<path d="M91.759 35.844C91.91 35.932 92.076 35.9729 92.239 35.9729C92.572 35.9729 92.895 35.8 93.073 35.492L97.16 28.419C97.426 27.959 97.268 27.37 96.808 27.103C96.349 26.837 95.759 26.995 95.493 27.455L91.406 34.5289C91.141 34.9889 91.298 35.578 91.759 35.844Z" fill="#F4F4F4"/>
<path d="M81.482 31.5941C81.565 31.6161 81.649 31.6271 81.732 31.6271C82.157 31.6271 82.546 31.3441 82.661 30.9151L84.788 22.9831C84.926 22.4701 84.621 21.9421 84.108 21.8041C83.595 21.6671 83.066 21.9711 82.929 22.4861L80.802 30.4161C80.664 30.9281 80.969 31.4561 81.482 31.5941Z" fill="#F4F4F4"/>
<path d="M70.46 30.105C70.992 30.105 71.422 29.674 71.422 29.143V20.962C71.422 20.431 70.991 20 70.46 20C69.929 20 69.498 20.431 69.498 20.962V29.143C69.498 29.673 69.929 30.105 70.46 30.105Z" fill="#F4F4F4"/>
<path d="M58.257 30.914C58.372 31.343 58.761 31.626 59.186 31.626C59.269 31.626 59.353 31.616 59.436 31.593C59.949 31.455 60.254 30.927 60.116 30.414L57.989 22.484C57.851 21.969 57.324 21.666 56.81 21.802C56.297 21.94 55.992 22.468 56.13 22.981L58.257 30.914Z" fill="#F4F4F4"/>
<path d="M47.844 35.492C48.022 35.801 48.346 35.973 48.678 35.973C48.841 35.973 49.007 35.931 49.158 35.844C49.618 35.578 49.776 34.99 49.51 34.529L45.424 27.4551C45.158 26.9951 44.57 26.836 44.109 27.103C43.649 27.37 43.491 27.957 43.757 28.419L47.844 35.492Z" fill="#F4F4F4"/>
<path d="M38.951 42.59C39.139 42.778 39.385 42.872 39.632 42.872C39.878 42.872 40.125 42.778 40.313 42.59C40.689 42.215 40.689 41.605 40.313 41.229L34.59 35.506C34.215 35.131 33.605 35.13 33.229 35.506C32.853 35.882 32.853 36.491 33.229 36.867L38.951 42.59Z" fill="#F4F4F4"/>
<path d="M25.263 47.757L32.252 51.793C32.404 51.881 32.569 51.923 32.732 51.923C33.065 51.923 33.388 51.75 33.566 51.441C33.832 50.981 33.674 50.392 33.214 50.127L26.225 46.09C25.764 45.824 25.176 45.982 24.91 46.442C24.645 46.902 24.802 47.491 25.263 47.757Z" fill="#F4F4F4"/>
<path d="M20.387 60.319L28.14 62.396C28.223 62.419 28.307 62.429 28.39 62.429C28.815 62.429 29.204 62.146 29.319 61.716C29.457 61.203 29.152 60.674 28.638 60.537L20.885 58.461C20.372 58.322 19.844 58.628 19.706 59.141C19.568 59.654 19.873 60.182 20.387 60.319Z" fill="#F4F4F4"/>
<path d="M27.825 72.741C27.825 72.21 27.394 71.7791 26.863 71.7791H18.962C18.43 71.7791 18 72.211 18 72.741C18 73.273 18.431 73.7031 18.962 73.7031H26.863C27.394 73.7041 27.825 73.273 27.825 72.741Z" fill="#F4F4F4"/>
<path d="M29.318 83.765C29.18 83.252 28.655 82.945 28.139 83.084L20.529 85.122C20.016 85.259 19.711 85.788 19.848 86.301C19.963 86.731 20.352 87.014 20.777 87.014C20.86 87.014 20.944 87.004 21.027 86.981L28.637 84.943C29.151 84.806 29.456 84.279 29.318 83.765Z" fill="#F4F4F4"/>
<path d="M33.566 94.0401C33.3 93.5791 32.712 93.421 32.251 93.687L25.497 97.587C25.037 97.853 24.879 98.4411 25.145 98.9011C25.323 99.2101 25.647 99.382 25.979 99.382C26.142 99.382 26.308 99.3411 26.459 99.2531L33.213 95.353C33.675 95.089 33.832 94.5001 33.566 94.0401Z" fill="#F4F4F4"/>
<path d="M38.952 102.888L33.5 108.34C33.124 108.716 33.124 109.326 33.5 109.702C33.688 109.89 33.935 109.984 34.181 109.984C34.427 109.984 34.674 109.89 34.862 109.702L40.314 104.25C40.69 103.874 40.69 103.264 40.314 102.888C39.938 102.512 39.328 102.513 38.952 102.888Z" fill="#F4F4F4"/>
</svg>
