<svg width="140" height="140" viewBox="0 0 140 140" fill="none" xmlns="http://www.w3.org/2000/svg">
<circle cx="70" cy="70" r="70" fill="#0088D3"/>
<path d="M86.2562 80.4893H82.7554C82.5191 80.4893 82.3276 80.2986 82.3276 80.0616V72.5898C82.3276 72.3536 82.5191 72.1621 82.7554 72.1621C82.9916 72.1621 83.1823 72.3536 83.1823 72.5898V79.6338H86.2553C86.4916 79.6338 86.6831 79.8261 86.6831 80.0616C86.6831 80.2986 86.4925 80.4893 86.2562 80.4893Z" fill="#F4F4F4"/>
<path d="M89.3635 80.4804H88.4111C88.1748 80.4804 87.9834 80.2881 87.9834 80.0519C87.9834 79.8156 88.1748 79.6241 88.4111 79.6241H89.3635C89.5998 79.6241 89.7912 79.8156 89.7912 80.0519C89.7912 80.2881 89.5998 80.4804 89.3635 80.4804Z" fill="#F4F4F4"/>
<path d="M106.226 74.8567L105.826 74.8558C103.597 74.8558 102.182 73.105 101.312 71.7876C100.689 70.845 99.8994 69.6792 99.1165 68.5239L97.826 66.6142C96.9233 65.2716 95.7028 64.6459 93.9829 64.6459H85.4293C84.4109 64.6459 83.5514 64.3086 82.9436 63.6715C81.9032 62.5806 81.9448 61.0261 81.9538 60.8526L81.9529 49.4206C81.9529 47.1752 83.6255 45.9637 85.1987 45.9637H98.5356C99.967 45.9637 101.051 46.6734 101.513 47.9117C103.717 53.8265 108.94 67.8746 109.834 70.5558C110.287 71.9131 110.24 72.9421 109.692 73.7022C108.861 74.8567 107.211 74.8567 106.226 74.8567ZM85.1987 47.6755C84.582 47.6755 83.663 48.1407 83.663 49.4214V60.8941C83.6622 60.9398 83.6337 61.9256 84.1877 62.4983C84.472 62.7924 84.8786 62.9358 85.4293 62.9358H93.9829C96.2918 62.9358 98.0134 63.8271 99.2452 65.661L100.533 67.5658C101.319 68.726 102.113 69.8975 102.74 70.845C104.086 72.8842 105.097 73.1458 105.826 73.1458H106.226C106.798 73.1458 107.985 73.1458 108.304 72.7042C108.499 72.4337 108.466 71.8634 108.211 71.0984C107.326 68.4433 102.111 54.4172 99.9092 48.5097C99.7031 47.9565 99.2411 47.6763 98.5356 47.6763L85.1987 47.6755Z" fill="#F4F4F4"/>
<path d="M93.8083 69.1423H88.9486C88.5095 69.1423 88.1543 68.7862 88.1543 68.3479C88.1543 67.9096 88.5103 67.5536 88.9486 67.5536H93.8083C94.2475 67.5536 94.6027 67.9096 94.6027 68.3479C94.6027 68.7862 94.2475 69.1423 93.8083 69.1423Z" fill="#F4F4F4"/>
<path d="M94.68 59.413C94.5757 59.413 94.4715 59.3731 94.3916 59.2941C94.2327 59.1352 94.2327 58.8769 94.3916 58.7181L98.3079 54.8018C98.4668 54.6429 98.725 54.6429 98.8839 54.8018C99.0428 54.9615 99.0428 55.2189 98.8839 55.3778L94.9676 59.2941C94.8886 59.3731 94.7843 59.413 94.68 59.413Z" fill="#F4F4F4"/>
<path d="M88.4083 60.5373C88.304 60.5373 88.1997 60.4974 88.1199 60.4183C87.961 60.2587 87.961 60.0012 88.1199 59.8415L97.1265 50.8333C97.2854 50.6744 97.5436 50.6744 97.7025 50.8333C97.8614 50.9921 97.8614 51.2504 97.7025 51.4093L88.6959 60.4183C88.6168 60.4974 88.5126 60.5373 88.4083 60.5373Z" fill="#F4F4F4"/>
<path d="M87.0921 56.997C86.9878 56.997 86.8836 56.9571 86.8037 56.878C86.6449 56.7184 86.6449 56.4601 86.8037 56.3012L90.619 52.4876C90.7779 52.3287 91.0362 52.3287 91.195 52.4876C91.3539 52.6472 91.3539 52.9055 91.195 53.0644L87.3797 56.878C87.3007 56.9571 87.1964 56.997 87.0921 56.997Z" fill="#F4F4F4"/>
<path d="M96.143 99.6335C94.0655 99.6335 92.3757 97.943 92.3757 95.8646C92.3757 93.7871 94.0655 92.0974 96.143 92.0974C98.2205 92.0974 99.911 93.7871 99.911 95.8646C99.911 97.943 98.2205 99.6335 96.143 99.6335ZM96.143 93.1158C94.6276 93.1158 93.3941 94.3493 93.3941 95.8646C93.3941 97.3808 94.6276 98.6151 96.143 98.6151C97.6592 98.6151 98.8926 97.3808 98.8926 95.8646C98.8926 94.3493 97.6592 93.1158 96.143 93.1158Z" fill="#F4F4F4"/>
<path d="M96.1441 105C91.1067 105 87.0095 100.902 87.0095 95.8645C87.0095 90.8272 91.1076 86.73 96.1441 86.73C101.181 86.73 105.279 90.8272 105.279 95.8645C105.28 100.902 101.181 105 96.1441 105ZM96.1441 88.502C92.0844 88.502 88.7807 91.8048 88.7807 95.8645C88.7807 99.9242 92.0836 103.228 96.1441 103.228C100.205 103.228 103.508 99.9242 103.508 95.8645C103.508 91.8048 100.205 88.502 96.1441 88.502Z" fill="#F4F4F4"/>
<path d="M44.105 92.0974C42.0274 92.0974 40.3369 93.7871 40.3369 95.8646C40.3369 97.943 42.0274 99.6335 44.105 99.6335C46.1825 99.6335 47.8722 97.943 47.8722 95.8646C47.8722 93.7871 46.1825 92.0974 44.105 92.0974ZM44.105 98.6151C42.5888 98.6151 41.3553 97.3808 41.3553 95.8646C41.3553 94.3493 42.5888 93.1158 44.105 93.1158C45.6203 93.1158 46.8538 94.3493 46.8538 95.8646C46.8538 97.3808 45.6211 98.6151 44.105 98.6151Z" fill="#F4F4F4"/>
<path d="M44.1051 86.73C39.0677 86.73 34.9706 90.8272 34.9706 95.8645C34.9706 100.902 39.0686 105 44.1051 105C49.1425 105 53.2405 100.902 53.2405 95.8645C53.2413 90.8272 49.1433 86.73 44.1051 86.73ZM44.1051 103.228C40.0454 103.228 36.7418 99.9242 36.7418 95.8645C36.7418 91.8048 40.0446 88.502 44.1051 88.502C48.1656 88.502 51.4693 91.8048 51.4693 95.8645C51.4693 99.9242 48.1656 103.228 44.1051 103.228Z" fill="#F4F4F4"/>
<path d="M60.664 50.7951H34.6282C34.392 50.7951 34.2005 50.6037 34.2005 50.3674C34.2005 50.1312 34.392 49.9397 34.6282 49.9397H60.6648C60.9011 49.9397 61.0925 50.1312 61.0925 50.3674C61.0925 50.6037 60.9002 50.7951 60.664 50.7951Z" fill="#F4F4F4"/>
<path d="M67.6931 50.7951H64.0245C63.7882 50.7951 63.5967 50.6037 63.5967 50.3674C63.5967 50.1312 63.7882 49.9397 64.0245 49.9397H67.6931C67.9294 49.9397 68.1208 50.1312 68.1208 50.3674C68.1208 50.6037 67.9294 50.7951 67.6931 50.7951Z" fill="#F4F4F4"/>
<path d="M52.7895 58.0636H34.5163C34.2801 58.0636 34.0886 57.8721 34.0886 57.6359C34.0886 57.3996 34.2801 57.2081 34.5163 57.2081H52.7895C53.0258 57.2081 53.2172 57.3996 53.2172 57.6359C53.2172 57.8721 53.0258 58.0636 52.7895 58.0636Z" fill="#F4F4F4"/>
<path d="M67.8017 58.0636H56.0479C55.8116 58.0636 55.6201 57.8721 55.6201 57.6359C55.6201 57.3996 55.8116 57.2081 56.0479 57.2081H67.8017C68.038 57.2081 68.2295 57.3996 68.2295 57.6359C68.2295 57.8721 68.038 58.0636 67.8017 58.0636Z" fill="#F4F4F4"/>
<path d="M42.338 65.3262H34.5151C34.2789 65.3262 34.0874 65.1347 34.0874 64.8985C34.0874 64.6622 34.2789 64.4716 34.5151 64.4716H42.338C42.5743 64.4716 42.7657 64.6622 42.7657 64.8985C42.7657 65.1347 42.5743 65.3262 42.338 65.3262Z" fill="#F4F4F4"/>
<path d="M67.8026 65.3262H45.9332C45.697 65.3262 45.5056 65.1347 45.5056 64.8985C45.5056 64.6622 45.697 64.4716 45.9332 64.4716H67.8026C68.0388 64.4716 68.2303 64.6622 68.2303 64.8985C68.2303 65.1347 68.0388 65.3262 67.8026 65.3262Z" fill="#F4F4F4"/>
<path d="M49.3946 72.5947H34.5163C34.2801 72.5947 34.0886 72.4032 34.0886 72.167C34.0886 71.9307 34.2801 71.7393 34.5163 71.7393H49.3946C49.6309 71.7393 49.8223 71.9307 49.8223 72.167C49.8223 72.4032 49.6309 72.5947 49.3946 72.5947Z" fill="#F4F4F4"/>
<path d="M67.8007 72.5947H52.9005C52.6642 72.5947 52.4727 72.4032 52.4727 72.167C52.4727 71.9307 52.6642 71.7393 52.9005 71.7393H67.8007C68.037 71.7393 68.2285 71.9307 68.2285 72.167C68.2285 72.4032 68.037 72.5947 67.8007 72.5947Z" fill="#F4F4F4"/>
<path d="M72.2817 78.5776H71.5077V43.9556H72.2817C72.7542 43.9556 73.1371 43.5711 73.1371 43.0993C73.1371 42.6276 72.7542 42.2439 72.2817 42.2439H30.0348C29.5623 42.2439 29.1793 42.6276 29.1793 43.0993C29.1793 43.5711 29.5623 43.9556 30.0348 43.9556H30.8087V78.5776H30.0348C29.5623 78.5776 29.1793 78.9613 29.1793 79.433C29.1793 79.9047 29.5623 80.2893 30.0348 80.2893H72.2817C72.7542 80.2893 73.1371 79.9055 73.1371 79.433C73.1371 78.9605 72.7542 78.5776 72.2817 78.5776ZM32.5197 43.9556H69.7976V78.5776H32.5197V43.9556Z" fill="#F4F4F4"/>
<path d="M116.483 85.8006H116.424V82.3796C116.424 82.3201 116.402 82.2688 116.39 82.2118C116.825 81.8549 117.108 81.3197 117.108 80.7143V78.3956C117.108 77.7675 116.804 77.2135 116.34 76.8575C116.358 76.789 116.382 76.7222 116.382 76.6489V74.7702C116.382 72.2674 116.321 72.036 115.659 70.3096C115.509 69.9194 115.326 69.442 115.102 68.822C113.51 64.4347 110.196 55.9626 108.004 50.3557C107.034 47.8741 106.292 45.9799 106.039 45.3029C105.147 42.9263 102.542 41.2 99.8462 41.2H83.3849C81.7791 41.2 80.0136 42.0587 78.7525 43.2262V35.8758C78.7525 35.3919 78.3606 35 77.8766 35H24.443C23.959 35 23.5672 35.3919 23.5672 35.8758V85.7989H22.6922C21.7585 85.7989 21 86.5591 21 87.4919V92.9668C21 93.9004 21.7593 94.6589 22.6922 94.6589H31.0666C31.0307 95.0508 31.0063 95.4484 31.0063 95.8492C31.0063 96.3332 31.3982 96.725 31.8821 96.725C32.366 96.725 32.7579 96.334 32.7579 95.8492C32.7579 89.5947 37.8474 84.5068 44.1028 84.5068C50.3581 84.5068 55.4477 89.5947 55.4477 95.8492C55.4477 96.3332 55.8395 96.725 56.3234 96.725C56.8074 96.725 57.1993 96.334 57.1993 95.8492C57.1993 95.4484 57.1748 95.0508 57.139 94.6589H61.9784V95.7278C61.9784 96.1776 62.3434 96.5426 62.7931 96.5426H77.4579C77.9076 96.5426 78.2726 96.1776 78.2726 95.7278V94.6589H83.1096C83.0737 95.0508 83.0492 95.4484 83.0492 95.8492C83.0492 96.3332 83.4411 96.725 83.9251 96.725C84.409 96.725 84.8009 96.334 84.8009 95.8492C84.8009 89.5947 89.8904 84.5068 96.1457 84.5068C102.401 84.5068 107.491 89.5947 107.491 95.8492C107.491 96.3332 107.882 96.725 108.366 96.725C108.85 96.725 109.242 96.334 109.242 95.8492C109.242 95.4484 109.218 95.0508 109.182 94.6589H116.483C117.417 94.6589 118.176 93.9004 118.176 92.9668V87.4919C118.176 86.5607 117.417 85.8006 116.483 85.8006ZM115.161 77.774C115.505 77.774 115.785 78.0527 115.785 78.3956V80.7143C115.785 81.0516 115.499 81.3368 115.161 81.3368H113.358C113.015 81.3368 112.735 81.0573 112.735 80.7143V78.3956C112.735 78.0584 113.02 77.7724 113.357 77.7724L115.161 77.774ZM31.3411 92.9505L22.7101 92.9684L22.6922 87.5123H34.0134C32.7286 89.0643 31.8031 90.9202 31.3411 92.9505ZM44.1028 82.7568C40.9164 82.7568 37.9949 83.9031 35.7218 85.8006H25.3188V36.7533H77.0008V45.7607C77.0008 45.878 77.0261 45.988 77.0676 46.0899C77.0571 46.1868 77.0424 46.2854 77.0424 46.3807V85.8014H52.4715C50.2017 83.9047 47.2867 82.7568 44.1028 82.7568ZM76.6432 94.9156H63.6078V91.2494H76.6432V94.9156ZM83.3841 92.9497H78.2726V90.4347C78.2726 89.9849 77.9076 89.6199 77.4579 89.6199H62.7931C62.3434 89.6199 61.9784 89.9849 61.9784 90.4347V92.9497H56.8644C56.4016 90.9153 55.4566 89.0668 54.1694 87.5131H86.0791C84.7919 89.0668 83.8469 90.9153 83.3841 92.9497ZM96.1457 82.7568C92.9618 82.7568 90.0476 83.9047 87.7778 85.8006H78.7125V46.3807C78.7125 45.1538 81.1143 42.8718 83.3857 42.8718H99.8469C101.84 42.8718 103.83 44.1704 104.476 45.8919C104.73 46.5705 105.475 48.4729 106.449 50.9659C108.639 56.5646 111.949 65.0246 113.532 69.3923C113.761 70.0245 113.948 70.5109 114.101 70.9084C114.702 72.4759 114.714 72.5053 114.714 74.771V76.4509L113.359 76.4493C112.285 76.4493 111.412 77.3227 111.412 78.3965V80.7151C111.412 81.7881 112.285 82.6615 113.359 82.6615H114.672V85.8014H104.528C102.254 83.9031 99.3321 82.7568 96.1457 82.7568ZM108.907 92.9497C108.445 90.9186 107.518 89.0619 106.232 87.5098L116.465 87.4935L116.483 92.9497H108.907Z" fill="#F4F4F4"/>
</svg>
