<svg width="140" height="140" viewBox="0 0 140 140" fill="none" xmlns="http://www.w3.org/2000/svg">
<circle cx="70" cy="70" r="70" fill="#0088D3"/>
<path d="M93.1485 49.895H87.9671C87.5779 49.895 87.2635 49.5807 87.2635 49.1915C87.2635 48.8024 87.5779 48.488 87.9671 48.488H93.1485C93.5377 48.488 93.852 48.8024 93.852 49.1915C93.852 49.5807 93.5377 49.895 93.1485 49.895Z" fill="#F4F4F4"/>
<path d="M97.033 49.895H96.2272C95.8381 49.895 95.5237 49.5807 95.5237 49.1915C95.5237 48.8024 95.8381 48.488 96.2272 48.488H97.033C97.4222 48.488 97.7365 48.8024 97.7365 49.1915C97.7365 49.5807 97.4222 49.895 97.033 49.895Z" fill="#F4F4F4"/>
<path d="M87.002 110H84.4649C84.0757 110 83.7614 109.686 83.7614 109.297C83.7614 108.907 84.0757 108.593 84.4649 108.593H87.002C87.3911 108.593 87.7055 108.907 87.7055 109.297C87.7055 109.686 87.3911 110 87.002 110Z" fill="#F4F4F4"/>
<path d="M101.084 67.3231C100.695 67.3231 100.381 67.0088 100.381 66.6196V47.5476H84.4223C84.0331 47.5476 83.7188 47.2333 83.7188 46.8441C83.7188 46.455 84.0331 46.1406 84.4223 46.1406H101.084C101.473 46.1406 101.788 46.455 101.788 46.8441V66.6171C101.788 67.0063 101.473 67.3206 101.084 67.3206V67.3231Z" fill="#F4F4F4"/>
<path d="M96.2295 67.3233C95.8403 67.3233 95.526 67.009 95.526 66.6198V52.6919C95.526 52.3027 95.8403 51.9884 96.2295 51.9884C96.6187 51.9884 96.933 52.3027 96.933 52.6919V66.6198C96.933 67.009 96.6187 67.3233 96.2295 67.3233Z" fill="#F4F4F4"/>
<path d="M91.0306 67.3233C90.6415 67.3233 90.3271 67.009 90.3271 66.6198V52.6919C90.3271 52.3027 90.6415 51.9884 91.0306 51.9884C91.4198 51.9884 91.7342 52.3027 91.7342 52.6919V66.6198C91.7342 67.009 91.4198 67.3233 91.0306 67.3233Z" fill="#F4F4F4"/>
<path d="M85.8317 102.416C85.4426 102.416 85.1282 102.102 85.1282 101.713V52.6919C85.1282 52.3027 85.4426 51.9884 85.8317 51.9884C86.2209 51.9884 86.5352 52.3027 86.5352 52.6919V101.713C86.5352 102.102 86.2209 102.416 85.8317 102.416Z" fill="#F4F4F4"/>
<path d="M44.2452 57.1075C43.856 57.1075 43.5417 56.7931 43.5417 56.404V56.3167C43.5417 55.9275 43.856 55.6132 44.2452 55.6132H45.1109C45.5 55.6132 45.8144 55.9275 45.8144 56.3167C45.8144 56.7058 45.5 57.0202 45.1109 57.0202H44.5845C44.4847 57.0751 44.3699 57.1075 44.2477 57.1075H44.2452Z" fill="#F4F4F4"/>
<path d="M53.9719 59.4524H41.9C41.5109 59.4524 41.1965 59.138 41.1965 58.7489V53.9715C41.1965 53.5823 41.5109 53.268 41.9 53.268H54.2687C54.6579 53.268 54.9722 53.5823 54.9722 53.9715C54.9722 54.3607 54.6579 54.675 54.2687 54.675H42.6035V58.0453H53.9719C54.361 58.0453 54.6754 58.3597 54.6754 58.7489C54.6754 59.138 54.361 59.4524 53.9719 59.4524Z" fill="#F4F4F4"/>
<path d="M54.2663 110H43.8709C43.4817 110 43.1674 109.686 43.1674 109.297C43.1674 108.907 43.4817 108.593 43.8709 108.593H54.2663C54.6554 108.593 54.9698 108.907 54.9698 109.297C54.9698 109.686 54.6554 110 54.2663 110Z" fill="#F4F4F4"/>
<path d="M36.559 76.0221C36.1699 76.0221 35.8555 75.7078 35.8555 75.3186V58.7489C35.8555 58.3597 36.1699 58.0453 36.559 58.0453H54.2664C54.6556 58.0453 54.9699 58.3597 54.9699 58.7489C54.9699 59.138 54.6556 59.4524 54.2664 59.4524H37.2625V75.3186C37.2625 75.7078 36.9482 76.0221 36.559 76.0221Z" fill="#F4F4F4"/>
<path d="M81.4735 110H57.7664C57.3773 110 57.0629 109.686 57.0629 109.296V43.908C57.0629 43.6436 57.2101 43.4016 57.4446 43.2819L81.1517 31.0778C81.3687 30.9656 81.6307 30.9755 81.8402 31.1028C82.0498 31.23 82.177 31.4595 82.177 31.704V109.296C82.177 109.686 81.8627 110 81.4735 110ZM58.4699 108.593H80.77V32.859L58.4699 44.3396V108.593Z" fill="#F4F4F4"/>
<path d="M116.556 110H90.7588C90.3696 110 90.0553 109.686 90.0553 109.297V69.3865C90.0553 68.9973 90.3696 68.683 90.7588 68.683H116.556C116.946 68.683 117.26 68.9973 117.26 69.3865V109.297C117.26 109.686 116.946 110 116.556 110ZM91.4623 108.593H115.853V70.09H91.4623V108.593Z" fill="#F4F4F4"/>
<path d="M28.7406 78.7738C28.3514 78.7738 28.0371 78.4595 28.0371 78.0703V63.0148C28.0371 62.6257 28.3514 62.3113 28.7406 62.3113C29.1298 62.3113 29.4441 62.6257 29.4441 63.0148V78.0703C29.4441 78.4595 29.1298 78.7738 28.7406 78.7738Z" fill="#F4F4F4"/>
<path d="M33.6726 78.7739C33.2834 78.7739 32.9691 78.4596 32.9691 78.0704V70.5015C32.9691 70.1124 33.2834 69.798 33.6726 69.798C34.0617 69.798 34.3761 70.1124 34.3761 70.5015V78.0704C34.3761 78.4596 34.0617 78.7739 33.6726 78.7739Z" fill="#F4F4F4"/>
<path d="M40.8599 110H22.7035C22.3143 110 22 109.685 22 109.296V78.0702C22 77.681 22.3143 77.3667 22.7035 77.3667H40.8599C41.2491 77.3667 41.5634 77.681 41.5634 78.0702V109.296C41.5634 109.685 41.2491 110 40.8599 110ZM23.4095 108.593H40.1539V78.7737H23.407V108.593H23.4095Z" fill="#F4F4F4"/>
<path d="M45.6747 69.1467H40.7202C40.3311 69.1467 40.0167 68.8324 40.0167 68.4432V62.9075C40.0167 62.5183 40.3311 62.204 40.7202 62.204H45.6747C46.0639 62.204 46.3782 62.5183 46.3782 62.9075V68.4432C46.3782 68.8324 46.0639 69.1467 45.6747 69.1467ZM41.4237 67.7397H44.9712V63.6135H41.4237V67.7397Z" fill="#F4F4F4"/>
<path d="M54.2665 69.1467H49.3121C48.9229 69.1467 48.6086 68.8324 48.6086 68.4432V62.9075C48.6086 62.5183 48.9229 62.204 49.3121 62.204H54.2665C54.6557 62.204 54.9701 62.5183 54.9701 62.9075V68.4432C54.9701 68.8324 54.6557 69.1467 54.2665 69.1467ZM50.0156 67.7397H53.563V63.6135H50.0156V67.7397Z" fill="#F4F4F4"/>
<path d="M45.6746 87.4929H43.1973C42.8082 87.4929 42.4938 87.1785 42.4938 86.7894C42.4938 86.4002 42.8082 86.0858 43.1973 86.0858H44.9711V81.9596H43.1973C42.8082 81.9596 42.4938 81.6453 42.4938 81.2561C42.4938 80.8669 42.8082 80.5526 43.1973 80.5526H45.6746C46.0637 80.5526 46.3781 80.8669 46.3781 81.2561V86.7918C46.3781 87.181 46.0637 87.4953 45.6746 87.4953V87.4929Z" fill="#F4F4F4"/>
<path d="M45.6747 78.3198H43.4569C43.0677 78.3198 42.7534 78.0055 42.7534 77.6163C42.7534 77.2271 43.0677 76.9128 43.4569 76.9128H44.9712V72.7866H41.4237V75.386C41.4237 75.7752 41.1094 76.0896 40.7202 76.0896C40.3311 76.0896 40.0167 75.7752 40.0167 75.386V72.0806C40.0167 71.6914 40.3311 71.3771 40.7202 71.3771H45.6747C46.0639 71.3771 46.3782 71.6914 46.3782 72.0806V77.6163C46.3782 78.0055 46.0639 78.3198 45.6747 78.3198Z" fill="#F4F4F4"/>
<path d="M45.6746 96.6682H43.1973C42.8082 96.6682 42.4938 96.3539 42.4938 95.9647C42.4938 95.5755 42.8082 95.2612 43.1973 95.2612H44.9711V91.135H43.1973C42.8082 91.135 42.4938 90.8206 42.4938 90.4315C42.4938 90.0423 42.8082 89.728 43.1973 89.728H45.6746C46.0637 89.728 46.3781 90.0423 46.3781 90.4315V95.9672C46.3781 96.3564 46.0637 96.6707 45.6746 96.6707V96.6682Z" fill="#F4F4F4"/>
<path d="M54.2665 87.4928H49.3121C48.9229 87.4928 48.6086 87.1785 48.6086 86.7893V81.2536C48.6086 80.8644 48.9229 80.5501 49.3121 80.5501H54.2665C54.6557 80.5501 54.9701 80.8644 54.9701 81.2536V86.7893C54.9701 87.1785 54.6557 87.4928 54.2665 87.4928ZM50.0156 86.0858H53.563V81.9596H50.0156V86.0858Z" fill="#F4F4F4"/>
<path d="M77.8961 50.7881H61.3463C60.9571 50.7881 60.6428 50.4738 60.6428 50.0846C60.6428 49.6954 60.9571 49.3811 61.3463 49.3811H77.8961C78.2852 49.3811 78.5996 49.6954 78.5996 50.0846C78.5996 50.4738 78.2852 50.7881 77.8961 50.7881Z" fill="#F4F4F4"/>
<path d="M77.8961 58.587H61.3463C60.9571 58.587 60.6428 58.2727 60.6428 57.8835C60.6428 57.4943 60.9571 57.18 61.3463 57.18H77.8961C78.2852 57.18 78.5996 57.4943 78.5996 57.8835C78.5996 58.2727 78.2852 58.587 77.8961 58.587Z" fill="#F4F4F4"/>
<path d="M77.8961 66.3825H61.3463C60.9571 66.3825 60.6428 66.0682 60.6428 65.679C60.6428 65.2899 60.9571 64.9755 61.3463 64.9755H77.8961C78.2852 64.9755 78.5996 65.2899 78.5996 65.679C78.5996 66.0682 78.2852 66.3825 77.8961 66.3825Z" fill="#F4F4F4"/>
<path d="M77.8961 74.1814H61.3463C60.9571 74.1814 60.6428 73.867 60.6428 73.4779C60.6428 73.0887 60.9571 72.7744 61.3463 72.7744H77.8961C78.2852 72.7744 78.5996 73.0887 78.5996 73.4779C78.5996 73.867 78.2852 74.1814 77.8961 74.1814Z" fill="#F4F4F4"/>
<path d="M77.8961 81.9795H61.3463C60.9571 81.9795 60.6428 81.6651 60.6428 81.276C60.6428 80.8868 60.9571 80.5724 61.3463 80.5724H77.8961C78.2852 80.5724 78.5996 80.8868 78.5996 81.276C78.5996 81.6651 78.2852 81.9795 77.8961 81.9795Z" fill="#F4F4F4"/>
<path d="M77.8961 89.7778H61.3463C60.9571 89.7778 60.6428 89.4635 60.6428 89.0743C60.6428 88.6851 60.9571 88.3708 61.3463 88.3708H77.8961C78.2852 88.3708 78.5996 88.6851 78.5996 89.0743C78.5996 89.4635 78.2852 89.7778 77.8961 89.7778Z" fill="#F4F4F4"/>
<path d="M77.8961 96.8156H61.3463C60.9571 96.8156 60.6428 96.5012 60.6428 96.1121C60.6428 95.7229 60.9571 95.4086 61.3463 95.4086H77.8961C78.2852 95.4086 78.5996 95.7229 78.5996 96.1121C78.5996 96.5012 78.2852 96.8156 77.8961 96.8156Z" fill="#F4F4F4"/>
<path d="M29.9332 84.2771H26.3508C25.9616 84.2771 25.6473 83.9628 25.6473 83.5736C25.6473 83.1845 25.9616 82.8701 26.3508 82.8701H29.9332C30.3223 82.8701 30.6367 83.1845 30.6367 83.5736C30.6367 83.9628 30.3223 84.2771 29.9332 84.2771Z" fill="#F4F4F4"/>
<path d="M37.2126 84.2771H33.6302C33.241 84.2771 32.9267 83.9628 32.9267 83.5736C32.9267 83.1845 33.241 82.8701 33.6302 82.8701H37.2126C37.6018 82.8701 37.9161 83.1845 37.9161 83.5736C37.9161 83.9628 37.6018 84.2771 37.2126 84.2771Z" fill="#F4F4F4"/>
<path d="M29.9332 89.4735H26.3508C25.9616 89.4735 25.6473 89.1592 25.6473 88.77C25.6473 88.3809 25.9616 88.0665 26.3508 88.0665H29.9332C30.3223 88.0665 30.6367 88.3809 30.6367 88.77C30.6367 89.1592 30.3223 89.4735 29.9332 89.4735Z" fill="#F4F4F4"/>
<path d="M37.2126 89.4736H33.6302C33.241 89.4736 32.9267 89.1593 32.9267 88.7701C32.9267 88.3809 33.241 88.0666 33.6302 88.0666H37.2126C37.6018 88.0666 37.9161 88.3809 37.9161 88.7701C37.9161 89.1593 37.6018 89.4736 37.2126 89.4736Z" fill="#F4F4F4"/>
<path d="M29.9332 94.6726H26.3508C25.9616 94.6726 25.6473 94.3583 25.6473 93.9691C25.6473 93.58 25.9616 93.2656 26.3508 93.2656H29.9332C30.3223 93.2656 30.6367 93.58 30.6367 93.9691C30.6367 94.3583 30.3223 94.6726 29.9332 94.6726Z" fill="#F4F4F4"/>
<path d="M37.2126 94.6726H33.6302C33.241 94.6726 32.9267 94.3583 32.9267 93.9691C32.9267 93.58 33.241 93.2656 33.6302 93.2656H37.2126C37.6018 93.2656 37.9161 93.58 37.9161 93.9691C37.9161 94.3583 37.6018 94.6726 37.2126 94.6726Z" fill="#F4F4F4"/>
<path d="M112.126 80.2459H95.1893C94.8001 80.2459 94.4858 79.9315 94.4858 79.5424V75.6906C94.4858 75.3014 94.8001 74.9871 95.1893 74.9871H112.126C112.515 74.9871 112.829 75.3014 112.829 75.6906V79.5424C112.829 79.9315 112.515 80.2459 112.126 80.2459ZM95.8928 78.8389H111.422V76.3966H95.8928V78.8389Z" fill="#F4F4F4"/>
<path d="M112.126 88.0442H95.1893C94.8001 88.0442 94.4858 87.7299 94.4858 87.3407V83.4889C94.4858 83.0997 94.8001 82.7854 95.1893 82.7854H112.126C112.515 82.7854 112.829 83.0997 112.829 83.4889V87.3407C112.829 87.7299 112.515 88.0442 112.126 88.0442ZM95.8928 86.6372H111.422V84.1949H95.8928V86.6372Z" fill="#F4F4F4"/>
<path d="M112.126 95.8402H95.1893C94.8001 95.8402 94.4858 95.5259 94.4858 95.1367V91.2849C94.4858 90.8958 94.8001 90.5814 95.1893 90.5814H112.126C112.515 90.5814 112.829 90.8958 112.829 91.2849V95.1367C112.829 95.5259 112.515 95.8402 112.126 95.8402ZM95.8928 94.4332H111.422V91.9909H95.8928V94.4332Z" fill="#F4F4F4"/>
</svg>
