<svg width="140" height="140" viewBox="0 0 140 140" fill="none" xmlns="http://www.w3.org/2000/svg">
<circle cx="70" cy="70" r="70" fill="#0088D3"/>
<path d="M120.807 68.1799L111.688 50.0642C111.047 48.792 109.763 48.0028 108.337 48.0028C107.748 48.0028 107.183 48.1371 106.656 48.4038L95.2496 54.1486C94.3545 54.5984 93.6895 55.3693 93.3749 56.3196C93.1983 56.8531 93.1587 57.4041 93.2249 57.946C92.3703 58.3056 91.0135 58.8585 89.9943 59.1805C88.7947 59.5549 87.092 58.7159 86.356 58.1447C86.2935 58.0876 84.8005 56.7427 82.4823 55.8615C79.5718 54.7576 76.2086 54.971 71.944 56.5118C71.1832 56.1687 69.3664 55.362 68.154 54.9222C64.7108 53.6776 57.8281 54.4577 53.7124 56.5597C51.1873 57.8521 48.1139 57.5624 46.9944 57.1861C46.8886 55.9305 46.1656 54.7539 44.9605 54.1431L33.5501 48.3992C33.0239 48.1343 32.4581 48 31.8712 48C30.4445 48 29.1603 48.7893 28.52 50.0606L19.4001 68.1762C18.471 70.0224 19.2153 72.2799 21.0597 73.2117L32.471 78.9537C32.9917 79.215 33.573 79.3548 34.1526 79.3548C35.0946 79.3548 35.9703 79.0043 36.6437 78.4027C37.5443 79.0457 39.0732 80.1505 39.8431 80.7853C40.9718 81.7125 42.0509 82.6057 43.9468 84.7905L43.7481 85.0453C42.3324 86.8686 42.6617 89.5059 44.4849 90.9253C45.23 91.503 46.126 91.8084 47.0515 91.8084C47.2253 91.8084 47.4001 91.7974 47.5758 91.7762C47.7874 91.7495 47.9888 91.6943 48.1894 91.6382C48.2105 92.8047 48.6971 93.9582 49.6557 94.7705C50.4109 95.4052 51.3685 95.7557 52.3519 95.7557C52.8919 95.7557 53.4125 95.6343 53.9019 95.4393C54.0473 96.3996 54.5054 97.3177 55.2983 97.9966C56.0628 98.6488 57.013 98.9984 58.0056 98.9984C58.1187 98.9984 58.2337 98.9938 58.3478 98.9855C58.8547 98.9441 59.3395 98.8116 59.7866 98.6019C59.9402 99.5291 60.39 100.41 61.1572 101.065C61.872 101.677 62.7551 102 63.7108 102C64.8718 102 66.041 101.513 66.9185 100.664C67.5781 100.025 67.9682 99.5227 68.3453 99.0361C68.5137 98.819 68.6829 98.6001 68.8834 98.3627C69.1051 98.0987 69.2762 97.8108 69.4206 97.5136C71.1565 98.3958 75.9216 100.866 75.9308 100.869C76.5637 101.189 77.261 101.338 77.9546 101.338C79.5948 101.338 81.2166 100.502 81.9258 99.0959C82.3839 98.1861 82.5375 97.2119 82.3775 96.2957C82.4437 96.326 82.4805 96.3435 82.4805 96.3435C84.6055 97.4152 87.2622 96.6232 88.2814 94.6086C88.6521 93.8681 88.7496 93.0328 88.6162 92.2205L88.7708 92.296C90.8746 93.352 93.5074 92.5416 94.522 90.5252C94.9378 89.7009 95.0666 88.7783 94.901 87.8722C96.4676 88.0672 97.9624 87.1638 98.8667 85.3737C99.3892 84.3333 99.4085 83.1577 99.0322 82.1127C99.1114 82.0363 99.184 81.9517 99.2355 81.8468C99.6109 81.0971 101.938 79.031 103.632 78.4662C104.296 79.031 105.146 79.3566 106.057 79.3566C106.644 79.3566 107.209 79.2223 107.737 78.9565L119.147 73.2117C120.04 72.7628 120.705 71.991 121.019 71.0407C121.332 70.0905 121.257 69.0749 120.807 68.1799ZM35.7698 76.4176C35.3337 77.2841 34.2206 77.6631 33.3431 77.2206L21.9326 71.4786C21.0431 71.0297 20.6843 69.9387 21.1323 69.0473L30.2522 50.9326C30.5613 50.32 31.1813 49.9391 31.8712 49.9391C32.1536 49.9391 32.425 50.0035 32.678 50.1323L44.0857 55.8743C44.9752 56.3251 45.3358 57.4143 44.8888 58.3029L35.7698 76.4176ZM48.8269 88.9981C48.4589 89.4737 47.929 89.7754 47.3348 89.8499C46.7405 89.9235 46.149 89.7607 45.6735 89.3918C44.6947 88.6292 44.518 87.2117 45.2778 86.2338L46.196 85.0545C46.23 85.026 46.2613 84.9947 46.2916 84.9607L47.1655 83.9801C47.9437 83.0188 49.3622 82.8725 50.3253 83.6517C51.2885 84.4363 51.4348 85.8557 50.6621 86.8069L48.8269 88.9981ZM54.8356 92.0872C54.8007 92.1285 54.7786 92.1764 54.7446 92.2187L54.0721 93.0117C53.3012 93.9279 51.8174 94.0548 50.9067 93.2876C49.9592 92.4836 49.8387 91.0578 50.6363 90.113L54.2975 85.8015C54.7262 85.2836 55.3572 84.9855 56.0287 84.9855C56.5568 84.9855 57.0517 85.1649 57.4601 85.5025C58.4141 86.2955 58.5456 87.7195 57.76 88.666L55.5982 91.2132L54.8356 92.0872ZM59.8804 96.1163C59.8243 96.1577 59.7728 96.2074 59.7259 96.2626C59.3358 96.7225 58.7912 97.0022 58.1923 97.05C57.5935 97.0969 57.0139 96.9102 56.5586 96.5211C55.6589 95.7511 55.5283 94.4191 56.2136 93.4845L57.0783 92.4652L59.3938 89.8113C59.7838 89.3495 60.3283 89.0671 60.9281 89.0174C60.9916 89.0119 61.056 89.0092 61.1195 89.0092C61.6484 89.0092 62.1543 89.1941 62.5619 89.5399C63.5075 90.3421 63.6253 91.7634 62.8287 92.7026L59.8804 96.1163ZM67.3997 97.1126C67.1826 97.3701 66.9967 97.6102 66.8118 97.8466C66.4613 98.3002 66.1293 98.727 65.5691 99.2697C65.0502 99.7711 64.3732 100.059 63.7099 100.059C63.2233 100.059 62.7753 99.8962 62.4166 99.5899C61.4967 98.8034 61.3881 97.4125 62.1746 96.488L64.0291 94.3041C64.4642 93.8175 65.1173 93.5268 65.7769 93.5268C66.1329 93.5268 66.6582 93.6114 67.1347 94.0125C68.0601 94.7953 68.1779 96.1862 67.3997 97.1126ZM97.1336 84.5007C96.8917 84.9782 95.992 86.4813 94.5487 85.7555L86.5934 81.6656C86.1178 81.4172 85.5327 81.6021 85.2853 82.0768C85.0369 82.5515 85.2209 83.1374 85.6955 83.3849L91.7641 86.553C91.7669 86.5549 91.7706 86.5549 91.7733 86.5567C91.7752 86.5567 91.7752 86.5576 91.777 86.5586C92.3124 86.8281 92.7144 87.3018 92.9085 87.8924C93.1044 88.4867 93.0621 89.1104 92.7889 89.6503C92.2461 90.7294 90.8028 91.1452 89.6309 90.5574L81.3306 86.2651C80.8596 86.0121 80.2709 86.1888 80.0179 86.6616C79.7649 87.1344 79.9416 87.7213 80.4135 87.9743L85.2715 90.5822C85.277 90.585 85.2825 90.5859 85.288 90.5886C85.2908 90.5905 85.2927 90.5932 85.2963 90.5951C86.4784 91.1875 87.0745 92.6851 86.5483 93.7356C86.0147 94.7907 84.5208 95.2001 83.3277 94.5994L75.9262 90.8922C75.457 90.6374 74.8665 90.8103 74.6107 91.2795C74.3541 91.7495 74.528 92.3383 74.998 92.5949C74.998 92.5949 78.4467 94.4614 78.5222 94.4817C79.5101 94.9802 80.1375 95.592 80.384 96.304C80.6444 97.0583 80.4236 97.7639 80.1936 98.222C79.6619 99.2762 77.9813 99.7288 76.8121 99.1409C76.8121 99.1409 71.2237 96.246 69.9275 95.5947C69.8972 95.5791 69.865 95.5809 69.8337 95.5699C69.7978 94.4338 69.3167 93.318 68.384 92.5315C67.6628 91.9225 66.7364 91.5876 65.7769 91.5876C65.604 91.5876 65.4375 91.6217 65.2682 91.6419C65.3887 90.3274 64.8948 88.976 63.8139 88.0598C62.9611 87.3377 61.8793 86.9918 60.7653 87.0838C60.5675 87.1013 60.3781 87.1464 60.1886 87.1896C60.1738 86.002 59.6789 84.8273 58.6974 84.0104C57.9477 83.3895 56.9993 83.0464 56.0278 83.0464C54.8476 83.0464 53.7455 83.5532 52.9599 84.4115C52.7511 83.5505 52.2866 82.7465 51.5479 82.1449C49.7514 80.6923 47.1094 80.9674 45.6891 82.7244L45.1997 83.2736C43.3286 81.1449 42.2266 80.2315 41.0767 79.2858C40.2488 78.6032 38.6638 77.458 37.7476 76.8048L46.6228 59.1731C46.6347 59.1483 46.6393 59.1244 46.6503 59.0995C47.3679 59.2991 48.3494 59.4454 49.4643 59.4454C51.0576 59.4454 52.9103 59.1483 54.5974 58.2845C58.1878 56.452 64.5774 55.6904 67.4962 56.7446C68.0215 56.935 68.6847 57.2064 69.3186 57.4759C65.1836 58.9919 62.2657 59.8952 59.7093 59.9256C58.0112 59.9458 56.4915 60.7636 55.6442 62.114C54.7225 63.5794 54.7096 65.4478 55.6074 67.3731C57.0958 70.567 62.2556 70.2818 65.1578 69.3509C70.1465 67.7493 72.2558 72.0747 72.3423 72.2559C72.3607 72.2946 72.3809 72.3323 72.403 72.3682C73.2162 73.6523 75.9464 75.7828 79.4687 76.4994C80.3068 76.6705 81.1485 76.7542 81.992 76.7542C83.3949 76.7542 84.8005 76.5178 86.1831 76.0542C89.7551 78.0283 91.2545 78.8498 96.107 81.4669C97.2118 82.0658 97.6727 83.4272 97.1336 84.5007ZM97.8861 80.3934C97.6276 80.1551 97.3479 79.9353 97.026 79.7605C92.8156 77.4902 91.134 76.5749 88.4277 75.0809C89.0155 74.77 89.5977 74.4251 90.1708 74.0295C90.6115 73.725 90.7219 73.1216 90.4174 72.6818C90.1129 72.2403 89.5094 72.1299 89.0688 72.4344C86.0699 74.5051 82.9699 75.2337 79.8532 74.5998C76.6446 73.9467 74.5362 72.0536 74.0671 71.3747C73.0533 69.2598 69.819 65.8176 64.5627 67.5056C62.1608 68.2755 58.2135 68.3804 57.3626 66.5553C56.7518 65.2463 56.7242 64.0357 57.2835 63.1462C57.7793 62.3569 58.6946 61.8785 59.7304 61.8666C63.0448 61.8279 66.6665 60.5539 72.2374 58.462C76.2252 56.9644 79.2627 56.7142 81.7952 57.6746C83.7518 58.4197 85.0406 59.5696 85.1077 59.6266C86.1647 60.4518 88.5031 61.6789 90.5766 61.0313C91.6409 60.6946 92.9949 60.1473 93.8863 59.7729L102.475 76.8343C100.786 77.5812 98.8097 79.1819 97.8861 80.3934ZM119.177 70.4327C119.025 70.8917 118.706 71.2624 118.276 71.4795L106.866 77.2234C106.611 77.3522 106.339 77.4166 106.057 77.4166C105.368 77.4166 104.748 77.0339 104.438 76.4194L95.4023 58.4712C95.4014 58.3434 95.3757 58.2136 95.3205 58.0895C95.2846 58.0085 95.2267 57.9478 95.1733 57.8816C95.1034 57.5679 95.1126 57.2404 95.2156 56.9267C95.3674 56.4686 95.6884 56.097 96.1199 55.8799L107.528 50.1332C107.782 50.0045 108.054 49.941 108.336 49.941C109.026 49.941 109.646 50.3218 109.956 50.9363L119.075 69.0501C119.292 69.4843 119.328 69.9746 119.177 70.4327Z" fill="#F4F4F4"/>
<path d="M37.8101 58.0692C37.3575 58.9698 37.7181 60.0617 38.6159 60.5152C39.5119 60.9659 40.6047 60.6044 41.0583 59.7057C41.5081 58.8115 41.1493 57.7168 40.2496 57.267C39.3527 56.8153 38.2608 57.1769 37.8101 58.0692Z" fill="#F4F4F4"/>
<path d="M102.399 58.0731C102.85 58.9709 102.49 60.0637 101.592 60.5154C100.694 60.9662 99.6043 60.6046 99.149 59.705C98.701 58.8117 99.0579 57.7171 99.9594 57.2663C100.854 56.8137 101.947 57.1789 102.399 58.0731Z" fill="#F4F4F4"/>
</svg>
