<svg width="24" height="19" viewBox="0 0 24 19" fill="none" xmlns="http://www.w3.org/2000/svg">
<path d="M11.8875 5.32031C11.9656 5.24219 12.0828 5.20312 12.2 5.20312C12.2781 5.20312 12.3953 5.24219 12.4734 5.32031L19.7 11.2188V17.625C19.7 17.9766 19.3875 18.25 19.075 18.25H14.6609C14.3484 18.25 14.0359 17.9766 14.0359 17.625V13.875C14.0359 13.5625 13.7625 13.25 13.4109 13.25H10.9109C10.5984 13.25 10.2859 13.5625 10.2859 13.875V17.625C10.2859 17.9766 10.0125 18.25 9.69995 18.25H5.32495C4.97339 18.25 4.69995 17.9766 4.69995 17.625V11.2578L11.8875 5.32031ZM23.2546 9.34375C23.3718 9.42188 23.45 9.57812 23.45 9.69531C23.45 9.8125 23.4109 9.92969 23.3328 10.0078L22.3171 11.2188C22.239 11.3359 22.1218 11.375 21.9656 11.375C21.8484 11.375 21.7312 11.3359 21.6531 11.2578L12.4734 3.71875C12.3953 3.64062 12.2781 3.60156 12.2 3.60156C12.0828 3.60156 11.9656 3.64062 11.8875 3.71875L2.70776 11.2578C2.62964 11.3359 2.51245 11.375 2.39526 11.375C2.23901 11.375 2.12183 11.3359 2.0437 11.2188L1.02808 10.0078C0.989014 9.92969 0.910889 9.8125 0.910889 9.69531C0.910889 9.57812 0.989014 9.42188 1.1062 9.34375L10.989 1.17969C11.3015 0.945312 11.7312 0.789062 12.2 0.789062C12.6296 0.789062 13.0593 0.945312 13.3718 1.17969L16.8875 4.07031V1.25781C16.8875 0.984375 17.0828 0.789062 17.3562 0.789062H19.5437C19.7781 0.789062 20.0125 0.984375 20.0125 1.25781V6.64844L23.2546 9.34375Z" fill="white"/>
</svg>
