<svg width="26" height="21" viewBox="0 0 26 21" fill="none" xmlns="http://www.w3.org/2000/svg">
<path d="M9.19995 13C8.49683 13 7.94995 12.4531 7.94995 11.75V5.5C7.94995 4.83594 8.49683 4.25 9.19995 4.25H10.45V13H9.19995ZM22.95 11.75C22.95 12.4531 22.364 13 21.7 13H20.45V4.25H21.7C22.364 4.25 22.95 4.83594 22.95 5.5V11.75ZM24.825 15.5C25.1375 15.5 25.45 15.8125 25.45 16.125V17.375C25.45 17.7266 25.1375 18 24.825 18H21.5828C21.6218 18.2344 21.7 18.4297 21.7 18.625C21.7 19.6797 20.8406 20.5 19.825 20.5C18.7703 20.5 17.95 19.6797 17.95 18.625C17.95 18.4297 17.989 18.2344 18.0281 18H10.3328C10.3718 18.2344 10.45 18.4297 10.45 18.625C10.45 19.6797 9.59058 20.5 8.57495 20.5C7.52026 20.5 6.69995 19.6797 6.69995 18.625C6.69995 18.4297 6.73901 18.2344 6.77808 18H3.57495C3.22339 18 2.94995 17.7266 2.94995 17.375V3H1.07495C0.723389 3 0.449951 2.72656 0.449951 2.375V1.125C0.449951 0.8125 0.723389 0.5 1.07495 0.5H4.82495C5.13745 0.5 5.44995 0.8125 5.44995 1.125V15.5H24.825ZM19.2 4.25V13H11.7V2.375C11.7 1.35938 12.5203 0.5 13.575 0.5H17.325C18.3406 0.5 19.2 1.35938 19.2 2.375V4.25ZM17.325 4.25V2.375H13.575V4.25H17.325Z" fill="white"/>
</svg>
