<svg width="26" height="20" viewBox="0 0 26 20" fill="none" xmlns="http://www.w3.org/2000/svg">
<path fill-rule="evenodd" clip-rule="evenodd" d="M22.9619 8.75897C22.3295 3.71185 18.0001 -0.0574301 12.902 0.000662422C7.80394 0.058755 3.56194 3.92571 3.04528 8.98592C2.98918 9.53532 3.39013 10.0261 3.94083 10.082C4.49152 10.138 4.98342 9.73798 5.03952 9.18858C5.45285 5.14041 8.84645 2.04685 12.9249 2.00037C17.0034 1.9539 20.4669 4.96933 20.9728 9.00702C21.4787 13.0447 18.8657 16.8179 14.9013 17.7744C11.4291 18.6122 7.88925 17.0554 6.1236 14.0879L9.0538 14.0869L9.17068 14.0801C9.66916 14.0224 10.0561 13.5997 10.0561 13.0869C10.0561 12.5347 9.60734 12.087 9.0538 12.087H4.0424L3.92551 12.0937C3.42704 12.1515 3.04012 12.5741 3.04012 13.0869V18.0865L3.04686 18.2032C3.10476 18.7005 3.52839 19.0865 4.0424 19.0865L4.15928 19.0797C4.65776 19.022 5.04468 18.5993 5.04468 18.0865L5.04514 16.0635C7.3994 19.144 11.421 20.6717 15.3725 19.7182C20.3281 18.5226 23.5943 13.8061 22.9619 8.75897ZM14.0084 5.97094C13.9505 5.47364 13.5268 5.08763 13.0128 5.08763C12.4593 5.08763 12.0105 5.53531 12.0105 6.08755V10.0872L12.0192 10.2187C12.048 10.4354 12.1475 10.638 12.3041 10.7943L14.3087 12.7941L14.4031 12.8773C14.7963 13.1823 15.3648 13.1546 15.7261 12.7941L15.8095 12.6999C16.1152 12.3077 16.0874 11.7405 15.7261 11.38L14.0151 9.67227V6.08755L14.0084 5.97094Z" fill="white"/>
</svg>
