<svg width="24" height="21" viewBox="0 0 24 21" fill="none" xmlns="http://www.w3.org/2000/svg">
<path d="M22.575 11.75C22.8875 11.75 23.2 12.0625 23.2 12.375V19.875C23.2 20.2266 22.8875 20.5 22.575 20.5H13.825C13.4734 20.5 13.2 20.2266 13.2 19.875V12.375C13.2 12.0625 13.4734 11.75 13.825 11.75H16.95V15.5L18.2 14.6797L19.45 15.5V11.75H22.575ZM7.57495 9.25C7.22339 9.25 6.94995 8.97656 6.94995 8.625V1.125C6.94995 0.8125 7.22339 0.5 7.57495 0.5H10.7V4.25L11.95 3.42969L13.2 4.25V0.5H16.325C16.6375 0.5 16.95 0.8125 16.95 1.125V8.625C16.95 8.97656 16.6375 9.25 16.325 9.25H7.57495ZM10.075 11.75C10.3875 11.75 10.7 12.0625 10.7 12.375V19.875C10.7 20.2266 10.3875 20.5 10.075 20.5H1.32495C0.973389 20.5 0.699951 20.2266 0.699951 19.875V12.375C0.699951 12.0625 0.973389 11.75 1.32495 11.75H4.44995V15.5L5.69995 14.6797L6.94995 15.5V11.75H10.075Z" fill="white"/>
</svg>
