<svg width="14" height="11" viewBox="0 0 14 11" fill="none" xmlns="http://www.w3.org/2000/svg">
<path d="M13.7266 3.97266C13.8359 3.89062 14 3.97266 14 4.10938V9.6875C14 10.4258 13.3984 11 12.6875 11H1.3125C0.574219 11 0 10.4258 0 9.6875V4.10938C0 3.97266 0.136719 3.89062 0.246094 3.97266C0.875 4.46484 1.66797 5.06641 4.45703 7.08984C5.03125 7.5 6.01562 8.40234 7 8.40234C7.95703 8.40234 8.96875 7.5 9.51562 7.08984C12.3047 5.06641 13.0977 4.46484 13.7266 3.97266ZM7 7.5C6.34375 7.52734 5.44141 6.70703 4.97656 6.37891C1.33984 3.75391 1.06641 3.50781 0.246094 2.85156C0.0820312 2.74219 0 2.55078 0 2.33203V1.8125C0 1.10156 0.574219 0.5 1.3125 0.5H12.6875C13.3984 0.5 14 1.10156 14 1.8125V2.33203C14 2.55078 13.8906 2.74219 13.7266 2.85156C12.9062 3.50781 12.6328 3.75391 8.99609 6.37891C8.53125 6.70703 7.62891 7.52734 7 7.5Z" fill="#C70F08"/>
</svg>
