<svg width="17" height="17" viewBox="0 0 17 17" fill="none" xmlns="http://www.w3.org/2000/svg">
<path d="M8.5 4.20703C10.7148 4.20703 12.543 6.03516 12.543 8.25C12.543 10.5 10.7148 12.293 8.5 12.293C6.25 12.293 4.45703 10.5 4.45703 8.25C4.45703 6.03516 6.25 4.20703 8.5 4.20703ZM8.5 10.8867C9.94141 10.8867 11.1016 9.72656 11.1016 8.25C11.1016 6.80859 9.94141 5.64844 8.5 5.64844C7.02344 5.64844 5.86328 6.80859 5.86328 8.25C5.86328 9.72656 7.05859 10.8867 8.5 10.8867ZM13.6328 4.06641C13.6328 4.59375 13.2109 5.01562 12.6836 5.01562C12.1562 5.01562 11.7344 4.59375 11.7344 4.06641C11.7344 3.53906 12.1562 3.11719 12.6836 3.11719C13.2109 3.11719 13.6328 3.53906 13.6328 4.06641ZM16.3047 5.01562C16.375 6.31641 16.375 10.2188 16.3047 11.5195C16.2344 12.7852 15.9531 13.875 15.0391 14.8242C14.125 15.7383 13 16.0195 11.7344 16.0898C10.4336 16.1602 6.53125 16.1602 5.23047 16.0898C3.96484 16.0195 2.875 15.7383 1.92578 14.8242C1.01172 13.875 0.730469 12.7852 0.660156 11.5195C0.589844 10.2188 0.589844 6.31641 0.660156 5.01562C0.730469 3.75 1.01172 2.625 1.92578 1.71094C2.875 0.796875 3.96484 0.515625 5.23047 0.445312C6.53125 0.375 10.4336 0.375 11.7344 0.445312C13 0.515625 14.125 0.796875 15.0391 1.71094C15.9531 2.625 16.2344 3.75 16.3047 5.01562ZM14.6172 12.8906C15.0391 11.8711 14.9336 9.41016 14.9336 8.25C14.9336 7.125 15.0391 4.66406 14.6172 3.60938C14.3359 2.94141 13.8086 2.37891 13.1406 2.13281C12.0859 1.71094 9.625 1.81641 8.5 1.81641C7.33984 1.81641 4.87891 1.71094 3.85938 2.13281C3.15625 2.41406 2.62891 2.94141 2.34766 3.60938C1.92578 4.66406 2.03125 7.125 2.03125 8.25C2.03125 9.41016 1.92578 11.8711 2.34766 12.8906C2.62891 13.5938 3.15625 14.1211 3.85938 14.4023C4.87891 14.8242 7.33984 14.7188 8.5 14.7188C9.625 14.7188 12.0859 14.8242 13.1406 14.4023C13.8086 14.1211 14.3711 13.5938 14.6172 12.8906Z" fill="#C70F08"/>
</svg>
