<svg width="14" height="15" viewBox="0 0 14 15" fill="none" xmlns="http://www.w3.org/2000/svg">
<path d="M13.5898 10.6484C13.8086 10.7578 13.9727 11.0039 13.9727 11.2773C13.9727 11.3047 13.9727 11.3594 13.9727 11.4141L13.3164 14.2578C13.2344 14.5586 12.9883 14.75 12.6875 14.75C5.66016 14.75 0 9.08984 0 2.0625C0 1.76172 0.191406 1.51562 0.492188 1.43359L3.33594 0.777344C3.39062 0.777344 3.44531 0.75 3.47266 0.75C3.74609 0.75 3.99219 0.914062 4.10156 1.16016L5.41406 4.22266C5.44141 4.30469 5.46875 4.38672 5.46875 4.46875C5.46875 4.6875 5.35938 4.87891 5.22266 4.98828L3.55469 6.35547C4.56641 8.48828 6.26172 10.1836 8.39453 11.1953L9.76172 9.52734C9.87109 9.39062 10.0625 9.28125 10.2539 9.28125C10.3633 9.28125 10.4453 9.30859 10.5273 9.33594L13.5898 10.6484Z" fill="#C70F08"/>
</svg>
