<svg width="26" height="19" viewBox="0 0 26 19" fill="none" xmlns="http://www.w3.org/2000/svg">
<path d="M4.19995 8.25C2.7937 8.25 1.69995 7.15625 1.69995 5.75C1.69995 4.38281 2.7937 3.25 4.19995 3.25C5.56714 3.25 6.69995 4.38281 6.69995 5.75C6.69995 7.15625 5.56714 8.25 4.19995 8.25ZM21.7 8.25C20.2937 8.25 19.2 7.15625 19.2 5.75C19.2 4.38281 20.2937 3.25 21.7 3.25C23.0671 3.25 24.2 4.38281 24.2 5.75C24.2 7.15625 23.0671 8.25 21.7 8.25ZM22.95 9.5C24.3171 9.5 25.45 10.6328 25.45 12V13.25C25.45 13.9531 24.864 14.5 24.2 14.5H21.6218C21.3484 12.6641 20.2546 11.1016 18.6531 10.2422C19.1218 9.8125 19.7468 9.5 20.45 9.5H22.95ZM12.95 9.5C10.5281 9.5 8.57495 7.54688 8.57495 5.125C8.57495 2.74219 10.5281 0.75 12.95 0.75C15.3328 0.75 17.325 2.74219 17.325 5.125C17.325 7.54688 15.3328 9.5 12.95 9.5ZM15.9187 10.75C18.4187 10.75 20.45 12.7812 20.45 15.2812V16.375C20.45 17.4297 19.5906 18.25 18.575 18.25H7.32495C6.27026 18.25 5.44995 17.4297 5.44995 16.375V15.2812C5.44995 12.7812 7.44214 10.75 9.94214 10.75H10.2546C11.075 11.1406 11.9734 11.375 12.95 11.375C13.8875 11.375 14.7859 11.1406 15.6062 10.75H15.9187ZM7.20776 10.2422C5.6062 11.1016 4.51245 12.6641 4.23901 14.5H1.69995C0.996826 14.5 0.449951 13.9531 0.449951 13.25V12C0.449951 10.6328 1.5437 9.5 2.94995 9.5H5.44995C6.11401 9.5 6.73901 9.8125 7.20776 10.2422Z" fill="white"/>
</svg>
