<svg width="26" height="21" viewBox="0 0 26 21" fill="none" xmlns="http://www.w3.org/2000/svg">
<path d="M25.085 14.25C25.3975 14.25 25.71 14.5625 25.71 14.875V16.125C25.71 16.4766 25.3975 16.75 25.085 16.75H23.21C23.21 18.8203 21.5303 20.5 19.46 20.5C17.3896 20.5 15.71 18.8203 15.71 16.75H10.71C10.71 18.8203 9.03027 20.5 6.95996 20.5C4.88965 20.5 3.20996 18.8203 3.20996 16.75H2.58496C1.53027 16.75 0.709961 15.9297 0.709961 14.875V2.375C0.709961 1.35938 1.53027 0.5 2.58496 0.5H15.085C16.1006 0.5 16.96 1.35938 16.96 2.375V4.25H18.6787C19.1475 4.25 19.6553 4.48438 20.0068 4.83594L23.874 8.70312C24.2256 9.05469 24.46 9.5625 24.46 10.0312V14.25H25.085ZM6.95996 18.625C7.97559 18.625 8.83496 17.8047 8.83496 16.75C8.83496 15.7344 7.97559 14.875 6.95996 14.875C5.90527 14.875 5.08496 15.7344 5.08496 16.75C5.08496 17.8047 5.90527 18.625 6.95996 18.625ZM19.46 18.625C20.4756 18.625 21.335 17.8047 21.335 16.75C21.335 15.7344 20.4756 14.875 19.46 14.875C18.4053 14.875 17.585 15.7344 17.585 16.75C17.585 17.8047 18.4053 18.625 19.46 18.625ZM22.585 10.5V10.0312L18.6787 6.125H16.96V10.5H22.585Z" fill="white"/>
</svg>
