<svg width="103" height="72" viewBox="0 0 103 72" fill="none" xmlns="http://www.w3.org/2000/svg">
<path d="M79.9253 0.0563518C79.6706 0.355554 79.4852 0.702628 79.275 1.03229C77.1984 4.26694 75.1239 7.50485 73.0517 10.7417C71.5495 13.0885 70.0495 15.4375 68.5484 17.7843C66.8305 20.4706 65.1127 23.1558 63.3937 25.841C63.3439 25.9194 63.3114 26.013 63.2236 26.063C63.1054 25.8704 62.9895 25.6768 62.8692 25.4864C62.2676 24.5376 61.6726 23.5845 61.0581 22.6445C60.3926 21.625 59.738 20.599 59.0877 19.5687C58.2662 18.2685 57.4349 16.9738 56.6025 15.6801C55.5523 14.047 54.4977 12.4172 53.4442 10.7863C53.0638 10.1977 52.6823 9.61015 52.3019 9.02154L52.3127 8.95734C52.5544 8.67446 52.7278 8.34588 52.9283 8.03471C54.4294 5.69767 55.9273 3.35846 57.4208 1.01597C57.631 0.687396 57.8749 0.377314 58.0255 0.0117435C65.2601 0.0117435 72.4957 0.0117435 79.7302 0.0139195C79.7941 0.0139195 79.8776 -0.0361288 79.9263 0.0552638L79.9253 0.0563518Z" fill="#0088D3"/>
<path d="M52.3116 8.95732C52.3084 8.97908 52.3051 8.99975 52.3008 9.02151C52.1187 9.24347 52.0006 9.50785 51.8326 9.74177C51.5768 10.0965 51.359 10.4794 51.1227 10.8494C50.6014 11.6654 50.0779 12.4792 49.5566 13.2941C48.9084 14.3092 48.2636 15.3254 47.6154 16.3395C46.9662 17.3567 46.3149 18.3718 45.6646 19.388C44.9113 20.5631 44.1581 21.7371 43.4048 22.9121C43.0114 23.5257 42.6201 24.1394 42.2267 24.753C41.9514 25.1817 41.6728 25.6093 41.3954 26.0369C40.976 25.3906 40.5543 24.7454 40.136 24.0969C39.6559 23.3506 39.1909 22.5944 38.6956 21.8578C38.3748 21.3802 38.0713 20.8917 37.7581 20.4097C37.46 19.9527 37.1641 19.4903 36.8813 19.0214C36.5605 18.4904 36.2028 17.9834 35.8657 17.4623C35.6826 17.1783 35.5157 16.8835 35.3336 16.5995C34.9998 16.0762 34.6583 15.5572 34.3224 15.036C34.1771 14.8108 34.0308 14.5867 33.8878 14.3615C33.5084 13.7652 33.1193 13.1744 32.74 12.5782C32.4506 12.1234 32.158 11.6686 31.8783 11.2062C31.5564 10.6753 31.202 10.1639 30.8661 9.64168C30.7056 9.39252 30.5561 9.13684 30.3989 8.8866C30.1865 8.54932 29.9708 8.21312 29.754 7.87802C29.4636 7.42867 29.1688 6.98367 28.8816 6.53215C28.5185 5.96312 28.1652 5.38974 27.7858 4.83159C27.4292 4.30717 27.1182 3.75229 26.7703 3.22243C26.3216 2.54025 25.8946 1.84392 25.4437 1.16392C25.2204 0.827725 24.9972 0.487178 24.7977 0.134664C24.775 0.0954953 24.7565 0.0574151 24.7782 0.0117188C32.0496 0.0117188 39.321 0.0117188 46.5923 0.0117188C46.6292 0.0737352 46.6649 0.13684 46.704 0.197768C48.5725 3.11798 50.4421 6.03711 52.3106 8.95732H52.3116Z" fill="#223E66"/>
<path d="M41.3964 26.0368C41.6738 25.6092 41.9524 25.1817 42.2277 24.753C42.6211 24.1404 43.0134 23.5257 43.4058 22.9121C44.159 21.737 44.9123 20.5631 45.6655 19.388C46.3169 18.3718 46.9672 17.3567 47.6164 16.3394C48.2645 15.3243 48.9094 14.3081 49.5575 13.2941C50.0789 12.4781 50.6024 11.6643 51.1237 10.8493C51.3599 10.4794 51.5778 10.0964 51.8336 9.74174C52.0016 9.50782 52.1197 9.24344 52.3018 9.02148C52.6822 9.6101 53.0648 10.1976 53.4441 10.7862C54.4976 12.4172 55.5522 14.047 56.6024 15.6801C57.4348 16.9737 58.2661 18.2674 59.0876 19.5686C59.7379 20.5979 60.3925 21.6239 61.058 22.6444C61.6714 23.5856 62.2664 24.5387 62.8691 25.4863C62.9904 25.6767 63.1053 25.8704 63.2235 26.0629C63.2126 26.1543 63.1519 26.2207 63.1053 26.2936C61.5349 28.7438 59.9622 31.1929 58.3918 33.6442C56.7151 36.2608 55.0395 38.8775 53.365 41.4953C53.0214 42.0316 52.6833 42.5713 52.3332 43.1251C52.0417 42.7573 51.8325 42.3613 51.5832 41.9925C51.3729 41.6813 51.1822 41.3571 50.9817 41.0394C50.7855 40.7304 50.5883 40.4214 50.3888 40.1146C50.0474 39.588 49.7006 39.0646 49.3625 38.537C49.2183 38.3128 49.0763 38.0865 48.9343 37.8613C48.5561 37.2618 48.1778 36.6634 47.7855 36.0737C47.4744 35.607 47.1926 35.1195 46.8903 34.6462C46.5532 34.1175 46.2031 33.5963 45.865 33.0686C45.4824 32.4713 45.1095 31.8675 44.728 31.2702C43.6496 29.5827 42.5701 27.8973 41.4907 26.2109C41.456 26.1565 41.4278 26.0967 41.3974 26.0401L41.3964 26.0368Z" fill="#A81E1E"/>
<path d="M102.352 53.8756C102.352 55.6338 102.341 57.3921 102.36 59.1492C102.365 59.5126 102.257 59.5974 101.912 59.5877C101.022 59.5626 100.131 59.5572 99.2421 59.5898C98.8487 59.604 98.7696 59.4669 98.7858 59.1078C98.814 58.4572 98.7815 57.8033 98.7999 57.1516C98.8075 56.8655 98.7392 56.7556 98.4303 56.761C97.3574 56.7795 96.2833 56.7784 95.2092 56.761C94.9177 56.7567 94.8581 56.8589 94.8646 57.1266C94.8808 57.8349 94.8581 58.5443 94.8765 59.2526C94.883 59.5169 94.8028 59.5887 94.5438 59.5844C93.5694 59.5702 92.594 59.5724 91.6196 59.5844C91.3877 59.5866 91.3031 59.5322 91.3031 59.2808C91.3118 56.5586 91.2739 53.8364 91.3281 51.1153C91.3454 50.2373 91.8537 49.504 92.5582 48.9687C93.4328 48.3028 94.4603 48.1124 95.53 47.9471C97.2858 47.6751 99.0199 47.8785 100.759 47.9873C101.134 48.0113 101.513 48.0363 101.889 48.0624C102.197 48.0831 102.369 48.1745 102.364 48.5596C102.34 50.332 102.353 52.1043 102.353 53.8756H102.352ZM97.3259 50.9086C96.7212 50.913 96.1121 50.8956 95.5257 51.0794C95.0066 51.2426 94.87 51.4341 94.8689 51.9477C94.8689 52.4144 94.8787 52.8823 94.8646 53.349C94.857 53.5775 94.9101 53.6722 95.1637 53.6689C96.2779 53.6558 97.3931 53.658 98.5073 53.6678C98.7295 53.67 98.7999 53.5982 98.7967 53.3773C98.7858 52.6549 98.7837 51.9324 98.7978 51.2111C98.8021 50.9859 98.7208 50.9043 98.5095 50.9064C98.115 50.9108 97.7194 50.9075 97.3248 50.9075L97.3259 50.9086Z" fill="#A81E1E"/>
<path d="M66.4511 53.8105C66.4511 52.0795 66.4706 50.3485 66.437 48.6196C66.4284 48.1725 66.6397 48.0832 66.9768 48.0517C68.4226 47.9168 69.8684 47.7906 71.3229 47.7982C72.3081 47.8036 73.2814 47.9189 74.234 48.1529C75.1184 48.3705 75.9021 48.7872 76.4732 49.5346C76.8634 50.0449 76.988 50.6629 77.0455 51.2613C77.2113 52.9956 76.8081 54.5308 75.2539 55.5546C75.0361 55.6982 75.1098 55.8103 75.1986 55.968C75.8045 57.0397 76.4071 58.1125 77.0097 59.1874C77.2232 59.5693 77.2211 59.5748 76.8081 59.5759C75.6354 59.578 74.4617 59.5672 73.289 59.5835C73.0137 59.5878 72.8782 59.4823 72.7861 59.2451C72.4598 58.4041 71.9862 57.6327 71.6166 56.8123C71.5093 56.573 71.3717 56.4108 71.0552 56.4478C70.8081 56.4772 70.5501 56.4141 70.2965 56.388C70.0808 56.3652 70.005 56.4446 70.0082 56.672C70.0212 57.5228 70.0028 58.3747 70.0191 59.2255C70.0245 59.4997 69.9519 59.5889 69.669 59.5835C68.7369 59.5661 67.8026 59.565 66.8706 59.5835C66.553 59.59 66.4403 59.5204 66.4435 59.1722C66.463 57.3846 66.4522 55.5981 66.4522 53.8105H66.4511ZM70.0115 52.1709C70.0115 52.469 70.0245 52.7671 70.0082 53.0641C69.9898 53.3731 70.1134 53.47 70.4157 53.4471C70.7528 53.4221 71.0931 53.4569 71.4313 53.4449C71.8247 53.4319 72.2203 53.4449 72.6083 53.3383C73.2326 53.1653 73.5209 52.7225 73.4743 51.9816C73.4353 51.3494 73.1502 51.0317 72.5064 50.9545C71.7423 50.862 70.975 50.8326 70.2066 50.9393C70.0277 50.9643 70.0093 51.0524 70.0104 51.1939C70.0136 51.5203 70.0115 51.8456 70.0104 52.172L70.0115 52.1709Z" fill="#A81E1E"/>
<path d="M53.5612 53.7635C53.5612 52.657 53.5232 51.5494 53.572 50.4462C53.6219 49.3147 53.9047 48.6923 55.0731 48.2364C55.8686 47.9253 56.7151 47.8448 57.5594 47.8165C59.5536 47.7512 61.5424 47.8981 63.5313 47.9971C63.8423 48.0123 63.968 48.0983 63.9399 48.4486C63.8781 49.2396 63.8683 50.0349 63.8391 50.8281C63.8336 50.9858 63.8477 51.173 63.6039 51.1153C62.8008 50.9282 61.9803 50.9467 61.1664 50.9206C60.0294 50.8847 58.8914 50.852 57.7697 51.1142C57.2754 51.2296 56.9915 51.6865 57.1183 52.175C57.1768 52.3981 57.3437 52.3045 57.4618 52.3045C58.9174 52.3121 60.373 52.3089 61.8286 52.3089C62.1255 52.3089 62.4236 52.3241 62.7184 52.3045C62.9731 52.2871 63.062 52.3611 63.0555 52.632C63.0359 53.3686 63.0359 54.1073 63.0555 54.8439C63.063 55.1311 62.9677 55.1986 62.6956 55.1964C61.0287 55.1855 59.3607 55.1855 57.6927 55.1975C57.5052 55.1986 57.2462 55.0626 57.1313 55.3118C56.9893 55.6186 57.1714 56.1354 57.4597 56.2888C57.7837 56.4607 58.1382 56.5336 58.5056 56.5662C60.089 56.7055 61.6682 56.5782 63.2473 56.4901C63.89 56.4542 63.8911 56.465 63.8911 57.0885C63.8911 57.7837 63.8878 58.4779 63.8933 59.1731C63.8943 59.394 63.8748 59.5463 63.5833 59.5539C61.7148 59.6039 59.8484 59.7443 57.9767 59.7193C56.9525 59.7062 55.9239 59.6714 54.9658 59.2765C54.4206 59.0512 53.9362 58.6802 53.7454 58.0709C53.637 57.726 53.5525 57.3746 53.559 56.9982C53.5796 55.921 53.5666 54.8428 53.5666 53.7657H53.5612V53.7635Z" fill="#A81E1E"/>
<path d="M48.2733 56.4967C49.253 56.476 50.1819 56.4455 51.1053 56.3248C51.386 56.2878 51.5106 56.2921 51.5551 56.7056C51.6342 57.44 51.6721 58.1711 51.6873 58.9055C51.6992 59.4756 51.6916 59.5083 51.1118 59.5398C49.7343 59.6127 48.3578 59.7041 46.9748 59.7128C45.9149 59.7194 44.8874 59.5453 43.9195 59.1819C42.9083 58.8022 42.141 58.0754 41.6793 57.0516C41.1005 55.7688 41.0669 54.4218 41.1189 53.0531C41.1558 52.0913 41.3606 51.1861 41.8289 50.3364C42.5626 49.0057 43.7624 48.3812 45.1703 48.0592C46.5348 47.748 47.9167 47.7393 49.3007 47.8677C50.0182 47.9341 50.7314 48.045 51.4478 48.1277C51.5963 48.1451 51.6407 48.205 51.6136 48.3464C51.4629 49.1222 51.3177 49.899 51.257 50.69C51.2267 51.0915 51.0543 51.1796 50.6457 51.1121C49.2964 50.8902 47.9384 50.7672 46.589 51.049C45.3068 51.3167 44.8332 52.0424 44.7465 53.2686C44.7042 53.8681 44.6891 54.4752 44.8831 55.0692C45.1237 55.8069 45.6331 56.1703 46.3636 56.3454C47.0149 56.5021 47.6685 56.4771 48.2743 56.4956L48.2733 56.4967Z" fill="#A81E1E"/>
<path d="M85.8158 55.2771C85.8158 56.5686 85.8017 57.8589 85.8245 59.1504C85.831 59.5127 85.7194 59.5987 85.3736 59.5889C84.4979 59.5638 83.62 59.5628 82.7443 59.5889C82.3682 59.5998 82.2425 59.5116 82.2457 59.1058C82.2663 56.6512 82.2555 54.1978 82.2555 51.7432C82.2555 51.6584 82.2555 51.5735 82.2555 51.4876C82.2511 51.1118 82.0593 50.924 81.68 50.924C80.7186 50.924 79.7573 50.9131 78.7959 50.9305C78.4946 50.9359 78.37 50.8772 78.3819 50.5388C78.409 49.7881 78.3992 49.0352 78.3851 48.2834C78.3808 48.0353 78.4339 47.9374 78.7092 47.9385C82.2576 47.9472 85.8061 47.9472 89.3545 47.9396C89.6027 47.9396 89.7024 47.9907 89.6959 48.266C89.6775 49.0461 89.6764 49.8262 89.6959 50.6063C89.7035 50.8881 89.5919 50.9305 89.3491 50.9283C88.2891 50.9174 87.228 50.9327 86.1681 50.9175C85.8884 50.9131 85.8061 50.9958 85.8082 51.2765C85.8212 52.6104 85.8137 53.9432 85.8137 55.2771H85.8158Z" fill="#A81E1E"/>
<path d="M33.0023 53.9267C33.0023 55.6991 32.9958 57.4714 33.0088 59.2427C33.0109 59.5484 32.9481 59.6627 32.6164 59.654C31.6703 59.63 30.723 59.6366 29.7768 59.6518C29.5178 59.6561 29.4354 59.5843 29.4419 59.3189C29.4593 58.5964 29.4408 57.8729 29.4517 57.1505C29.4549 56.9176 29.3931 56.8284 29.145 56.8306C28.0286 56.8426 26.9134 56.8426 25.797 56.8306C25.5488 56.8284 25.486 56.9176 25.4903 57.1515C25.5022 57.874 25.4827 58.5975 25.5011 59.3199C25.5076 59.5876 25.422 59.6551 25.1652 59.6507C24.2049 59.6366 23.2435 59.6333 22.2833 59.6518C21.9939 59.6572 21.931 59.5593 21.931 59.2884C21.9408 56.7936 21.9343 54.2988 21.9386 51.8029C21.9419 49.6301 23.3172 48.5585 25.2486 48.1461C27.1529 47.7392 29.0778 47.8589 30.9994 48.0112C31.5565 48.0547 32.1125 48.1265 32.6695 48.1744C32.9503 48.1983 33.0131 48.3332 33.0109 48.6085C32.9958 50.3809 33.0034 52.1521 33.0034 53.9245L33.0023 53.9267ZM27.4553 53.7406C28.0069 53.7406 28.5586 53.7298 29.1092 53.745C29.3595 53.7515 29.4603 53.6862 29.4538 53.4142C29.4365 52.7201 29.4354 52.0238 29.4538 51.3296C29.4614 51.0337 29.3292 50.9684 29.0756 50.964C28.2432 50.9488 27.4098 50.9445 26.5828 51.0446C25.7287 51.1479 25.4946 51.4264 25.4946 52.2784C25.4946 52.6613 25.5066 53.0454 25.4903 53.4273C25.4795 53.6688 25.5597 53.7504 25.8014 53.7439C26.3519 53.7298 26.9036 53.7396 27.4553 53.7396V53.7406Z" fill="#223E66"/>
<path d="M1.91063 47.9993C2.44712 47.9993 2.9847 48.0026 3.52119 47.9971C3.73362 47.9949 3.85284 48.0211 3.94497 48.28C4.26795 49.1841 4.65921 50.0622 5.00603 50.9576C5.53277 52.3143 6.04216 53.6776 6.56565 55.0344C6.609 55.1453 6.6296 55.3161 6.75857 55.3303C6.81168 55.3357 6.90164 55.1562 6.94499 55.0485C7.83697 52.83 8.72896 50.6127 9.60794 48.3888C9.72283 48.0983 9.86914 47.983 10.1921 47.9906C11.1947 48.0145 12.1983 48.008 13.2019 47.9939C13.5249 47.9895 13.6528 48.0004 13.4696 48.3823C11.9306 51.5799 10.4121 54.7885 8.88828 57.9937C8.66935 58.4529 8.44608 58.9098 8.24016 59.3755C8.15562 59.5659 8.05157 59.6562 7.82939 59.6508C7.13682 59.6355 6.44426 59.6366 5.75278 59.6508C5.53385 59.6551 5.43414 59.5713 5.3431 59.3788C3.59056 55.6937 1.8326 52.0108 0.0681332 48.3322C-0.0749314 48.033 0.00960679 47.9851 0.300071 47.9949C0.836563 48.0123 1.37414 48.0004 1.91063 48.0004V47.9993Z" fill="#223E66"/>
<path d="M18.9408 53.8015C18.9408 55.6163 18.9332 57.4311 18.9473 59.2448C18.9494 59.5505 18.8898 59.6615 18.5582 59.6528C17.6261 59.6278 16.694 59.6343 15.7619 59.6506C15.4845 59.655 15.3728 59.6049 15.3739 59.2894C15.3858 55.6467 15.3837 52.003 15.3761 48.3593C15.3761 48.096 15.4238 47.985 15.7196 47.9904C16.6799 48.0089 17.6413 48.0089 18.6015 47.9904C18.8942 47.985 18.9473 48.0916 18.9462 48.3571C18.9364 50.1719 18.9408 51.9856 18.9408 53.8004V53.8015Z" fill="#223E66"/>
<path d="M46.9315 68.3777C46.9315 67.6129 46.9402 66.848 46.9272 66.0831C46.9228 65.8264 46.9673 65.698 47.2664 65.7165C48.1768 65.772 49.0991 65.6098 49.9987 65.847C50.6078 66.008 51.0435 66.3616 51.1985 67.0145C51.3459 67.6346 51.1562 68.1242 50.6848 68.5246C50.5894 68.6062 50.4051 68.6573 50.6631 68.789C51.2635 69.0936 51.4998 69.6409 51.4218 70.2643C51.3101 71.1543 50.8278 71.6613 50.054 71.8039C49.3571 71.9333 48.6472 71.905 47.9459 71.8626C47.3921 71.8289 46.9532 71.2664 46.9467 70.6723C46.938 69.9075 46.9445 69.1426 46.9445 68.3788H46.9326L46.9315 68.3777ZM48.826 69.1698C48.2415 69.1698 47.9503 69.4349 47.9524 69.9651C47.9524 70.1631 47.947 70.3633 47.973 70.5581C48.0034 70.7822 48.115 70.9639 48.3697 70.9857C48.8477 71.0259 49.33 71.0455 49.8004 70.9389C50.2198 70.8432 50.4377 70.4863 50.4116 70.0054C50.39 69.5963 50.1179 69.3406 49.6909 69.2492C49.3712 69.1818 49.0558 69.1665 48.826 69.1698ZM48.7978 66.5967C48.5756 66.5967 48.3914 66.6032 48.2082 66.5945C48.0413 66.5869 47.9449 66.6239 47.9492 66.8241C47.96 67.2495 47.9524 67.6749 47.9524 68.1003C47.9524 68.2004 47.9459 68.3124 48.0923 68.3081C48.6374 68.2929 49.1934 68.3908 49.7245 68.2004C50.1548 68.0459 50.1851 67.6836 50.1656 67.293C50.1494 66.9601 49.9694 66.8034 49.6725 66.6924C49.369 66.5782 49.0644 66.6108 48.7978 66.5956V66.5967Z" fill="#373435"/>
<path d="M79.3487 68.7759C79.3378 67.2005 80.1572 66.1245 81.2876 65.7643C83.155 65.1703 84.8068 66.2267 85.1254 68.1906C85.2273 68.8206 85.1514 69.4309 84.978 70.0239C84.5423 71.509 83.0499 72.1912 81.6485 71.9192C80.2135 71.6407 79.3194 70.3895 79.3476 68.7759H79.3487ZM84.1142 68.876C84.1532 68.5866 84.0644 68.2722 83.9983 67.9578C83.8476 67.2462 83.2136 66.6554 82.4939 66.527C81.7873 66.4008 81.1066 66.7261 80.7175 67.3409C80.2482 68.084 80.2699 69.6235 80.9148 70.4178C81.7851 71.4894 83.4542 71.2066 83.9267 69.9934C84.0633 69.6442 84.1218 69.2862 84.1142 68.875V68.876Z" fill="#373435"/>
<path d="M89.3589 68.6975C89.3589 67.8184 89.3665 66.9393 89.3535 66.0602C89.3491 65.8066 89.4163 65.7076 89.6829 65.7163C90.4969 65.7446 91.3152 65.6609 92.1205 65.8415C92.4304 65.9111 92.7036 66.0504 92.9442 66.2538C94.0616 67.1949 93.7971 69.1523 92.4662 69.742C92.2906 69.8203 92.1942 69.8203 92.373 70.0227C92.7859 70.4894 93.0634 71.0987 93.7787 71.2206C93.9575 71.251 93.8806 71.7298 93.6638 71.8516C93.2737 72.0725 92.8976 71.9952 92.554 71.7439C92.0749 71.3936 91.778 70.8887 91.4723 70.3959C91.2978 70.1141 90.7895 69.8704 90.4676 69.9106C90.3105 69.9302 90.382 70.0444 90.3809 70.1108C90.3733 70.5787 90.3571 71.0476 90.3842 71.5143C90.4026 71.8266 90.2856 71.9213 89.9994 71.8788C89.916 71.8669 89.8303 71.8734 89.7458 71.8777C89.4553 71.8897 89.3502 71.7515 89.3546 71.4621C89.3654 70.5406 89.3589 69.619 89.3589 68.6964V68.6975ZM90.3788 67.8075C90.3788 67.9206 90.3788 68.0338 90.3788 68.147C90.3788 68.828 90.7223 69.1389 91.4095 69.0794C92.0815 69.0206 92.515 68.6311 92.5724 67.9772C92.619 67.4441 92.3806 66.7891 91.6685 66.664C91.2881 66.5976 90.9163 66.6183 90.5403 66.5976C90.369 66.5878 90.3798 66.714 90.3798 66.8294C90.3798 67.1547 90.3798 67.4811 90.3798 67.8064L90.3788 67.8075Z" fill="#373435"/>
<path d="M32.6825 68.7399C32.6825 67.8619 32.6998 66.9828 32.6738 66.1047C32.6641 65.7707 32.7746 65.6946 33.0802 65.7163C33.8996 65.7729 34.7146 65.6859 35.5405 65.8948C36.6048 66.1635 37.0373 67.3016 36.9116 68.1948C36.8075 68.9281 36.4325 69.4395 35.7757 69.7409C35.573 69.8344 35.6012 69.9128 35.7085 70.0466C36.0889 70.5231 36.3729 71.1041 37.0741 71.2151C37.266 71.2456 37.2497 71.6732 37.0362 71.8059C36.7295 71.9952 36.4054 72.0703 36.0564 71.8701C35.4506 71.5219 35.1276 70.9355 34.771 70.3774C34.6008 70.1108 34.0904 69.8616 33.7934 69.9117C33.6427 69.9367 33.7078 70.0499 33.7067 70.1228C33.7002 70.6047 33.6926 71.0867 33.7078 71.5676C33.7154 71.8092 33.6341 71.9082 33.3945 71.8799C33.297 71.869 33.1962 71.8723 33.0987 71.8799C32.7952 71.9027 32.6727 71.7831 32.6792 71.461C32.6966 70.5547 32.6857 69.6473 32.6857 68.741L32.6825 68.7399ZM33.7024 67.8194V68.2024C33.7024 68.8211 34.0199 69.1145 34.655 69.0826C35.4159 69.0445 35.8776 68.6028 35.8635 67.863C35.8472 67.0165 35.5167 66.7358 34.7006 66.6128C34.4513 66.5748 34.1922 66.6085 33.9386 66.5943C33.75 66.5835 33.6926 66.6618 33.698 66.8424C33.7089 67.1677 33.7013 67.4941 33.7002 67.8205L33.7024 67.8194Z" fill="#373435"/>
<path d="M71.8497 65.7218C72.3006 65.7457 72.8327 65.688 73.3616 65.836C74.3815 66.1232 75.0372 66.7521 75.3006 67.7846C75.5726 68.8531 75.4859 69.866 74.8389 70.7941C74.5181 71.2543 74.065 71.5372 73.5524 71.708C72.8295 71.9484 72.0795 71.9463 71.3371 71.8048C70.8222 71.7069 70.483 71.3022 70.4364 70.7712C70.2944 69.1729 70.4082 67.5692 70.3703 65.9688C70.3649 65.7435 70.4895 65.7174 70.6662 65.7196C71.0336 65.725 71.401 65.7207 71.8497 65.7207V65.7218ZM71.3967 68.5277C71.3967 69.0511 71.3902 69.5744 71.3978 70.0988C71.4097 70.9116 71.5311 71.0236 72.3461 71.0008C72.4025 70.9997 72.4588 70.9964 72.5152 70.9921C73.4765 70.9181 74.0033 70.472 74.2753 69.5352C74.4021 69.1011 74.3837 68.6616 74.3371 68.2275C74.2536 67.4517 73.7269 66.911 72.9856 66.6879C72.552 66.5574 72.1228 66.6335 71.6936 66.5933C71.4411 66.5693 71.3858 66.6836 71.3913 66.9142C71.4043 67.4517 71.3956 67.9892 71.3956 68.5277H71.3967Z" fill="#373435"/>
<path d="M1.37743 68.3625C1.37743 67.5824 1.37743 66.8022 1.37743 66.0221C1.37743 65.86 1.36117 65.7055 1.60503 65.7208C2.50243 65.7741 3.40417 65.6305 4.3005 65.835C5.18056 66.0363 5.79617 66.54 6.14516 67.356C6.55701 68.3178 6.55376 69.3112 6.13216 70.2599C5.68779 71.2587 4.85975 71.781 3.77918 71.8669C3.33047 71.9028 2.87419 71.8996 2.4244 71.8691C1.86948 71.831 1.40019 71.2914 1.39152 70.7049C1.37959 69.9248 1.38826 69.1447 1.38826 68.3646H1.37634L1.37743 68.3625ZM2.39514 68.6584H2.40597C2.40597 69.2688 2.41681 69.8791 2.40164 70.4884C2.39297 70.817 2.57072 70.9595 2.84926 70.99C3.25786 71.0346 3.66538 71.0194 4.06422 70.8942C5.18164 70.5439 5.47753 69.3699 5.34747 68.3744C5.22608 67.4485 4.74703 66.8055 3.79002 66.639C3.43235 66.577 3.05735 66.6206 2.6921 66.5934C2.43741 66.5738 2.38647 66.6847 2.39188 66.9132C2.40489 67.4942 2.39622 68.0763 2.39622 68.6584H2.39514Z" fill="#373435"/>
<path d="M102.442 71.8779C102.086 71.9529 101.882 71.7625 101.774 71.3643C101.682 71.0303 101.666 70.5712 101.395 70.4145C101.128 70.26 100.71 70.359 100.359 70.359C99.9077 70.359 99.3734 70.2241 99.0309 70.4221C98.7079 70.6082 98.7144 71.1957 98.5616 71.6004C98.5052 71.7495 98.4727 71.904 98.2581 71.879C97.9861 71.8474 97.6869 71.9671 97.4561 71.7223C97.3748 71.6353 97.4539 71.5754 97.4821 71.4993C98.1302 69.7258 98.7914 67.9578 99.4091 66.1745C99.588 65.6588 99.9781 65.7252 100.352 65.6708C100.726 65.6164 100.877 65.8307 100.982 66.1473C101.519 67.7652 102.18 69.3396 102.688 70.9694C102.745 71.1554 102.839 71.3317 102.927 71.5058C103.075 71.7963 103.001 71.9225 102.671 71.879C102.616 71.8713 102.559 71.879 102.442 71.879V71.8779ZM100.174 69.4821V69.4984C100.414 69.4984 100.653 69.4908 100.893 69.5006C101.068 69.5082 101.149 69.4919 101.072 69.2764C100.811 68.5475 100.57 67.8109 100.32 67.0776C100.295 67.0036 100.304 66.8828 100.192 66.8915C100.109 66.8981 100.074 66.9818 100.045 67.0711C99.8817 67.6107 99.6953 68.1449 99.5392 68.6867C99.4644 68.949 99.2043 69.2862 99.3604 69.4505C99.4948 69.592 99.8925 69.4799 100.173 69.4799L100.174 69.4821Z" fill="#373435"/>
<path d="M56.5353 67.9785C56.5895 68.5649 56.428 69.2928 56.6187 69.9989C56.8279 70.7725 57.3547 71.15 58.0581 71.0782C58.7528 71.0075 59.1386 70.5516 59.2416 69.7606C59.3998 68.5464 59.2828 67.33 59.3088 66.1147C59.3153 65.8133 59.3619 65.6632 59.699 65.7056C59.9927 65.7426 60.3579 65.6197 60.3384 66.1365C60.2929 67.367 60.3926 68.5975 60.2691 69.8292C60.0848 71.6679 58.4493 72.324 56.9688 71.8529C56.1408 71.5896 55.5295 70.6082 55.5263 69.7127C55.5208 68.5355 55.5187 67.3583 55.5176 66.1811C55.5176 65.7328 55.5859 65.7023 56.1072 65.6632C56.5429 65.6316 56.5472 65.8732 56.5396 66.1887C56.5266 66.7414 56.5364 67.2952 56.5364 67.9785H56.5353Z" fill="#373435"/>
<path d="M17.9631 71.98C17.4179 71.9594 16.889 71.881 16.4305 71.5416C16.2311 71.3936 16.1607 71.1912 16.2593 70.9878C16.3677 70.7647 16.5595 70.9094 16.7362 70.9388C17.4017 71.0498 18.0628 71.2402 18.7369 70.8953C19.01 70.756 19.0967 70.6004 19.1163 70.3262C19.1379 70.0216 19.009 69.8356 18.7651 69.6713C18.3901 69.4178 17.9446 69.3634 17.5447 69.1849C17.2868 69.0696 17.0234 68.9662 16.7915 68.8052C16.2127 68.4027 15.9016 67.8532 16.0046 67.1395C16.1076 66.4203 16.5281 65.9623 17.2347 65.7457C18.2459 65.4367 19.4382 65.7457 19.9443 66.4965C20.0548 66.6597 20.2499 66.8457 20.0614 67.0644C19.8706 67.2842 19.5964 67.356 19.3157 67.3788C19.1661 67.3908 19.2051 67.2396 19.1629 67.1634C18.8529 66.5933 18.1213 66.3398 17.5317 66.6053C16.9085 66.886 16.8131 67.5116 17.341 67.9446C17.6932 68.234 18.1278 68.358 18.557 68.4908C19.204 68.691 19.7969 68.9869 20.0809 69.655C20.4645 70.5602 19.9952 71.4795 18.9927 71.8212C18.6611 71.9343 18.3229 72.0214 17.9642 71.9822L17.9631 71.98Z" fill="#373435"/>
<path d="M26.7627 69.2339C26.7627 70.014 26.7541 70.7931 26.7682 71.5732C26.7725 71.8169 26.6945 71.9126 26.4549 71.8811C26.3715 71.8702 26.2848 71.8713 26.2013 71.8811C25.861 71.9202 25.732 71.7951 25.7364 71.4306C25.7559 70.0837 25.7439 68.7367 25.7439 67.3898C25.7439 66.861 25.4788 66.5966 24.9484 66.5966C24.7793 66.5966 24.6092 66.5966 24.4401 66.5966C23.9296 66.5944 23.9437 66.5857 23.9372 66.0678C23.934 65.7784 24.0358 65.7066 24.3025 65.7088C25.602 65.7175 26.9015 65.7131 28.2021 65.7131C28.3614 65.7131 28.5348 65.7131 28.5857 65.9014C28.641 66.107 28.6464 66.3279 28.5803 66.5291C28.5467 66.6292 28.4058 66.5955 28.3094 66.5955C27.956 66.5977 27.6016 66.6184 27.2505 66.5901C26.882 66.5607 26.7313 66.651 26.7541 67.0644C26.7931 67.7858 26.7649 68.5104 26.7649 69.2328L26.7627 69.2339Z" fill="#373435"/>
<path d="M65.8562 68.8108C65.8562 69.703 65.8486 70.5952 65.8605 71.4863C65.8648 71.755 65.8291 71.9378 65.505 71.879C65.2395 71.8312 64.8341 72.0455 64.8352 71.5015C64.8395 69.6747 64.8385 67.849 64.8352 66.0223C64.8352 65.5784 65.1723 65.7046 65.4075 65.6752C65.6481 65.6458 65.8616 65.6643 65.8583 66.007C65.8497 66.9416 65.8551 67.8762 65.8551 68.8098L65.8562 68.8108Z" fill="#373435"/>
<path d="M11.7138 68.837C11.7138 69.728 11.7062 70.6191 11.7181 71.5102C11.7214 71.7681 11.6769 71.8899 11.3756 71.8877C10.7004 71.8812 10.6918 71.891 10.6918 71.2197C10.6918 69.5224 10.7058 67.8251 10.6831 66.1278C10.6766 65.6273 10.9876 65.6981 11.29 65.6687C11.6423 65.6339 11.7214 65.809 11.7171 66.1213C11.7051 67.0265 11.7127 67.9317 11.7127 68.837H11.7138Z" fill="#373435"/>
<path d="M42.3827 68.7824C42.3827 69.704 42.3751 70.6255 42.3881 71.547C42.3914 71.8049 42.3166 71.917 42.0543 71.8811C41.9568 71.868 41.856 71.8702 41.7584 71.8811C41.4355 71.9159 41.352 71.7614 41.3542 71.4567C41.3661 69.9683 41.3596 68.4799 41.3596 66.9905C41.3596 66.7642 41.3596 66.5368 41.3596 66.3105C41.3596 65.748 41.6024 65.563 42.1627 65.6718C42.4087 65.7197 42.3816 65.8948 42.3827 66.0613C42.3849 66.9687 42.3838 67.8761 42.3838 68.7835L42.3827 68.7824Z" fill="#373435"/>
</svg>
