<svg width="156" height="55" viewBox="0 0 156 55" fill="none" xmlns="http://www.w3.org/2000/svg">
<path d="M43.936 39.664C43.936 40.016 43.914 40.3827 43.87 40.764H35.356C35.4147 41.5267 35.6567 42.1133 36.082 42.524C36.522 42.92 37.0573 43.118 37.688 43.118C38.6267 43.118 39.2793 42.722 39.646 41.93H43.65C43.4447 42.7367 43.0707 43.4627 42.528 44.108C42 44.7533 41.3327 45.2593 40.526 45.626C39.7193 45.9927 38.8173 46.176 37.82 46.176C36.6173 46.176 35.5467 45.9193 34.608 45.406C33.6693 44.8927 32.936 44.1593 32.408 43.206C31.88 42.2527 31.616 41.138 31.616 39.862C31.616 38.586 31.8727 37.4713 32.386 36.518C32.914 35.5647 33.6473 34.8313 34.586 34.318C35.5247 33.8047 36.6027 33.548 37.82 33.548C39.008 33.548 40.064 33.7973 40.988 34.296C41.912 34.7947 42.6307 35.506 43.144 36.43C43.672 37.354 43.936 38.432 43.936 39.664ZM40.086 38.674C40.086 38.0287 39.866 37.5153 39.426 37.134C38.986 36.7527 38.436 36.562 37.776 36.562C37.1453 36.562 36.61 36.7453 36.17 37.112C35.7447 37.4787 35.4807 37.9993 35.378 38.674H40.086ZM53.4006 33.592C54.838 33.592 55.982 34.0613 56.8326 35C57.698 35.924 58.1306 37.2 58.1306 38.828V46H54.3906V39.334C54.3906 38.5127 54.178 37.8747 53.7526 37.42C53.3273 36.9653 52.7553 36.738 52.0366 36.738C51.318 36.738 50.746 36.9653 50.3206 37.42C49.8953 37.8747 49.6826 38.5127 49.6826 39.334V46H45.9206V33.724H49.6826V35.352C50.064 34.8093 50.5773 34.384 51.2226 34.076C51.868 33.7533 52.594 33.592 53.4006 33.592ZM65.7389 46.176C64.6682 46.176 63.7149 45.9927 62.8789 45.626C62.0429 45.2593 61.3829 44.7607 60.8989 44.13C60.4149 43.4847 60.1435 42.766 60.0849 41.974H63.8029C63.8469 42.3993 64.0449 42.744 64.3969 43.008C64.7489 43.272 65.1815 43.404 65.6949 43.404C66.1642 43.404 66.5235 43.316 66.7729 43.14C67.0369 42.9493 67.1689 42.7073 67.1689 42.414C67.1689 42.062 66.9855 41.8053 66.6189 41.644C66.2522 41.468 65.6582 41.2773 64.8369 41.072C63.9569 40.8667 63.2235 40.654 62.6369 40.434C62.0502 40.1993 61.5442 39.84 61.1189 39.356C60.6935 38.8573 60.4809 38.19 60.4809 37.354C60.4809 36.65 60.6715 36.012 61.0529 35.44C61.4489 34.8533 62.0209 34.3913 62.7689 34.054C63.5315 33.7167 64.4335 33.548 65.4749 33.548C67.0149 33.548 68.2249 33.9293 69.1049 34.692C69.9995 35.4547 70.5129 36.4667 70.6449 37.728H67.1689C67.1102 37.3027 66.9195 36.9653 66.5969 36.716C66.2889 36.4667 65.8782 36.342 65.3649 36.342C64.9249 36.342 64.5875 36.43 64.3529 36.606C64.1182 36.7673 64.0009 36.9947 64.0009 37.288C64.0009 37.64 64.1842 37.904 64.5509 38.08C64.9322 38.256 65.5189 38.432 66.3109 38.608C67.2202 38.8427 67.9609 39.0773 68.5329 39.312C69.1049 39.532 69.6035 39.8987 70.0289 40.412C70.4689 40.9107 70.6962 41.5853 70.7109 42.436C70.7109 43.1547 70.5055 43.8 70.0949 44.372C69.6989 44.9293 69.1195 45.3693 68.3569 45.692C67.6089 46.0147 66.7362 46.176 65.7389 46.176ZM74.9044 32.448C74.2444 32.448 73.7018 32.2573 73.2764 31.876C72.8658 31.48 72.6604 30.996 72.6604 30.424C72.6604 29.8373 72.8658 29.3533 73.2764 28.972C73.7018 28.576 74.2444 28.378 74.9044 28.378C75.5498 28.378 76.0778 28.576 76.4884 28.972C76.9138 29.3533 77.1264 29.8373 77.1264 30.424C77.1264 30.996 76.9138 31.48 76.4884 31.876C76.0778 32.2573 75.5498 32.448 74.9044 32.448ZM76.7744 33.724V46H73.0124V33.724H76.7744ZM86.9807 33.592C88.4181 33.592 89.5621 34.0613 90.4127 35C91.2781 35.924 91.7107 37.2 91.7107 38.828V46H87.9707V39.334C87.9707 38.5127 87.7581 37.8747 87.3327 37.42C86.9074 36.9653 86.3354 36.738 85.6167 36.738C84.8981 36.738 84.3261 36.9653 83.9007 37.42C83.4754 37.8747 83.2627 38.5127 83.2627 39.334V46H79.5007V33.724H83.2627V35.352C83.6441 34.8093 84.1574 34.384 84.8027 34.076C85.4481 33.7533 86.1741 33.592 86.9807 33.592ZM93.5769 39.84C93.5769 38.5787 93.8116 37.4713 94.2809 36.518C94.7649 35.5647 95.4176 34.8313 96.2389 34.318C97.0603 33.8047 97.9769 33.548 98.9889 33.548C99.8543 33.548 100.61 33.724 101.255 34.076C101.915 34.428 102.421 34.89 102.773 35.462V33.724H106.535V46H102.773V44.262C102.406 44.834 101.893 45.296 101.233 45.648C100.588 46 99.8323 46.176 98.9669 46.176C97.9696 46.176 97.0603 45.9193 96.2389 45.406C95.4176 44.878 94.7649 44.1373 94.2809 43.184C93.8116 42.216 93.5769 41.1013 93.5769 39.84ZM102.773 39.862C102.773 38.9233 102.509 38.1827 101.981 37.64C101.468 37.0973 100.837 36.826 100.089 36.826C99.3409 36.826 98.7029 37.0973 98.1749 37.64C97.6616 38.168 97.4049 38.9013 97.4049 39.84C97.4049 40.7787 97.6616 41.5267 98.1749 42.084C98.7029 42.6267 99.3409 42.898 100.089 42.898C100.837 42.898 101.468 42.6267 101.981 42.084C102.509 41.5413 102.773 40.8007 102.773 39.862Z" fill="#F4F4F4"/>
<path d="M13.7827 8.1L8.56273 22H5.92273L0.682734 8.1H3.12273L7.24273 19.66L11.3827 8.1H13.7827ZM16.8495 9.52C16.4361 9.52 16.0895 9.38 15.8095 9.1C15.5295 8.82 15.3895 8.47333 15.3895 8.06C15.3895 7.64667 15.5295 7.3 15.8095 7.02C16.0895 6.74 16.4361 6.6 16.8495 6.6C17.2495 6.6 17.5895 6.74 17.8695 7.02C18.1495 7.3 18.2895 7.64667 18.2895 8.06C18.2895 8.47333 18.1495 8.82 17.8695 9.1C17.5895 9.38 17.2495 9.52 16.8495 9.52ZM17.9695 10.98V22H15.6895V10.98H17.9695ZM20.2029 16.44C20.2029 15.3333 20.4296 14.3533 20.8829 13.5C21.3496 12.6467 21.9762 11.9867 22.7629 11.52C23.5629 11.04 24.4429 10.8 25.4029 10.8C26.2696 10.8 27.0229 10.9733 27.6629 11.32C28.3162 11.6533 28.8362 12.0733 29.2229 12.58V10.98H31.5229V22H29.2229V20.36C28.8362 20.88 28.3096 21.3133 27.6429 21.66C26.9762 22.0067 26.2162 22.18 25.3629 22.18C24.4162 22.18 23.5496 21.94 22.7629 21.46C21.9762 20.9667 21.3496 20.2867 20.8829 19.42C20.4296 18.54 20.2029 17.5467 20.2029 16.44ZM29.2229 16.48C29.2229 15.72 29.0629 15.06 28.7429 14.5C28.4362 13.94 28.0296 13.5133 27.5229 13.22C27.0162 12.9267 26.4696 12.78 25.8829 12.78C25.2962 12.78 24.7496 12.9267 24.2429 13.22C23.7362 13.5 23.3229 13.92 23.0029 14.48C22.6962 15.0267 22.5429 15.68 22.5429 16.44C22.5429 17.2 22.6962 17.8667 23.0029 18.44C23.3229 19.0133 23.7362 19.4533 24.2429 19.76C24.7629 20.0533 25.3096 20.2 25.8829 20.2C26.4696 20.2 27.0162 20.0533 27.5229 19.76C28.0296 19.4667 28.4362 19.04 28.7429 18.48C29.0629 17.9067 29.2229 17.24 29.2229 16.48ZM38.9529 15.02C38.9529 13.66 39.2662 12.44 39.8929 11.36C40.5329 10.28 41.3929 9.44 42.4729 8.84C43.5662 8.22667 44.7596 7.92 46.0529 7.92C47.5329 7.92 48.8462 8.28667 49.9929 9.02C51.1529 9.74 51.9929 10.7667 52.5129 12.1H49.7729C49.4129 11.3667 48.9129 10.82 48.2729 10.46C47.6329 10.1 46.8929 9.92 46.0529 9.92C45.1329 9.92 44.3129 10.1267 43.5929 10.54C42.8729 10.9533 42.3062 11.5467 41.8929 12.32C41.4929 13.0933 41.2929 13.9933 41.2929 15.02C41.2929 16.0467 41.4929 16.9467 41.8929 17.72C42.3062 18.4933 42.8729 19.0933 43.5929 19.52C44.3129 19.9333 45.1329 20.14 46.0529 20.14C46.8929 20.14 47.6329 19.96 48.2729 19.6C48.9129 19.24 49.4129 18.6933 49.7729 17.96H52.5129C51.9929 19.2933 51.1529 20.32 49.9929 21.04C48.8462 21.76 47.5329 22.12 46.0529 22.12C44.7462 22.12 43.5529 21.82 42.4729 21.22C41.3929 20.6067 40.5329 19.76 39.8929 18.68C39.2662 17.6 38.9529 16.38 38.9529 15.02ZM65.2816 16.22C65.2816 16.6333 65.255 17.0067 65.2016 17.34H56.7816C56.8483 18.22 57.175 18.9267 57.7616 19.46C58.3483 19.9933 59.0683 20.26 59.9216 20.26C61.1483 20.26 62.015 19.7467 62.5216 18.72H64.9816C64.6483 19.7333 64.0416 20.5667 63.1616 21.22C62.295 21.86 61.215 22.18 59.9216 22.18C58.8683 22.18 57.9216 21.9467 57.0816 21.48C56.255 21 55.6016 20.3333 55.1216 19.48C54.655 18.6133 54.4216 17.6133 54.4216 16.48C54.4216 15.3467 54.6483 14.3533 55.1016 13.5C55.5683 12.6333 56.215 11.9667 57.0416 11.5C57.8816 11.0333 58.8416 10.8 59.9216 10.8C60.9616 10.8 61.8883 11.0267 62.7016 11.48C63.515 11.9333 64.1483 12.5733 64.6016 13.4C65.055 14.2133 65.2816 15.1533 65.2816 16.22ZM62.9016 15.5C62.8883 14.66 62.5883 13.9867 62.0016 13.48C61.415 12.9733 60.6883 12.72 59.8216 12.72C59.035 12.72 58.3616 12.9733 57.8016 13.48C57.2416 13.9733 56.9083 14.6467 56.8016 15.5H62.9016ZM69.8054 12.58C70.1387 12.02 70.5787 11.5867 71.1254 11.28C71.6854 10.96 72.3454 10.8 73.1054 10.8V13.16H72.5254C71.6321 13.16 70.9521 13.3867 70.4854 13.84C70.0321 14.2933 69.8054 15.08 69.8054 16.2V22H67.5254V10.98H69.8054V12.58ZM77.8612 12.84V18.94C77.8612 19.3533 77.9545 19.6533 78.1412 19.84C78.3412 20.0133 78.6745 20.1 79.1412 20.1H80.5412V22H78.7412C77.7145 22 76.9278 21.76 76.3812 21.28C75.8345 20.8 75.5612 20.02 75.5612 18.94V12.84H74.2612V10.98H75.5612V8.24H77.8612V10.98H80.5412V12.84H77.8612ZM81.8826 16.44C81.8826 15.3333 82.1092 14.3533 82.5626 13.5C83.0292 12.6467 83.6559 11.9867 84.4426 11.52C85.2426 11.04 86.1226 10.8 87.0826 10.8C87.9492 10.8 88.7026 10.9733 89.3426 11.32C89.9959 11.6533 90.5159 12.0733 90.9026 12.58V10.98H93.2026V22H90.9026V20.36C90.5159 20.88 89.9892 21.3133 89.3226 21.66C88.6559 22.0067 87.8959 22.18 87.0426 22.18C86.0959 22.18 85.2292 21.94 84.4426 21.46C83.6559 20.9667 83.0292 20.2867 82.5626 19.42C82.1092 18.54 81.8826 17.5467 81.8826 16.44ZM90.9026 16.48C90.9026 15.72 90.7426 15.06 90.4226 14.5C90.1159 13.94 89.7092 13.5133 89.2026 13.22C88.6959 12.9267 88.1492 12.78 87.5626 12.78C86.9759 12.78 86.4292 12.9267 85.9226 13.22C85.4159 13.5 85.0026 13.92 84.6826 14.48C84.3759 15.0267 84.2226 15.68 84.2226 16.44C84.2226 17.2 84.3759 17.8667 84.6826 18.44C85.0026 19.0133 85.4159 19.4533 85.9226 19.76C86.4426 20.0533 86.9892 20.2 87.5626 20.2C88.1492 20.2 88.6959 20.0533 89.2026 19.76C89.7092 19.4667 90.1159 19.04 90.4226 18.48C90.7426 17.9067 90.9026 17.24 90.9026 16.48Z" fill="#F4F4F4"/>
<path opacity="0.9" d="M155.999 8.04958C155.777 8.31395 155.616 8.62061 155.433 8.9119C153.626 11.77 151.821 14.6309 150.017 17.4909C148.71 19.5646 147.405 21.6401 146.098 23.7137C144.603 26.0873 143.108 28.4599 141.612 30.8325C141.569 30.9017 141.541 30.9844 141.464 31.0286C141.362 30.8584 141.261 30.6873 141.156 30.5191C140.633 29.6808 140.115 28.8387 139.58 28.0081C139.001 27.1073 138.431 26.2007 137.865 25.2903C137.15 24.1415 136.427 22.9975 135.703 21.8545C134.789 20.4115 133.871 18.9714 132.954 17.5304C132.623 17.0103 132.291 16.4911 131.96 15.9711L131.969 15.9143C132.18 15.6644 132.331 15.3741 132.505 15.0991C133.811 13.0341 135.115 10.9673 136.415 8.89748C136.598 8.60716 136.81 8.33317 136.941 8.01016C143.237 8.01016 149.533 8.01016 155.829 8.01208C155.885 8.01208 155.957 7.96786 156 8.04861L155.999 8.04958Z" fill="#EAEAEA"/>
<path opacity="0.68" d="M131.969 15.9146C131.966 15.9339 131.963 15.9521 131.96 15.9714C131.801 16.1675 131.698 16.4011 131.552 16.6078C131.33 16.9212 131.14 17.2596 130.934 17.5864C130.481 18.3074 130.025 19.0265 129.571 19.7466C129.007 20.6435 128.446 21.5414 127.882 22.4374C127.317 23.3362 126.75 24.2332 126.184 25.1311C125.529 26.1693 124.873 27.2066 124.218 28.2449C123.876 28.7871 123.535 29.3293 123.193 29.8715C122.953 30.2502 122.711 30.628 122.469 31.0058C122.104 30.4348 121.737 29.8647 121.373 29.2918C120.955 28.6323 120.551 27.9641 120.12 27.3133C119.841 26.8913 119.577 26.4596 119.304 26.0338C119.045 25.63 118.787 25.2214 118.541 24.8071C118.262 24.338 117.95 23.89 117.657 23.4295C117.498 23.1786 117.353 22.918 117.194 22.6671C116.904 22.2047 116.606 21.7462 116.314 21.2857C116.188 21.0867 116.06 20.8886 115.936 20.6896C115.606 20.1628 115.267 19.6408 114.937 19.114C114.685 18.7122 114.431 18.3103 114.187 17.9017C113.907 17.4326 113.599 16.9808 113.306 16.5193C113.167 16.2992 113.037 16.0733 112.9 15.8522C112.715 15.5541 112.527 15.2571 112.339 14.961C112.086 14.564 111.829 14.1708 111.579 13.7718C111.263 13.269 110.956 12.7624 110.626 12.2692C110.315 11.8059 110.045 11.3156 109.742 10.8474C109.352 10.2446 108.98 9.62937 108.588 9.02853C108.393 8.73148 108.199 8.43058 108.025 8.1191C108.006 8.08449 107.99 8.05084 108.008 8.01047C114.336 8.01047 120.664 8.01047 126.992 8.01047C127.024 8.06526 127.055 8.12102 127.089 8.17486C128.715 10.7551 130.342 13.3344 131.968 15.9146H131.969Z" fill="#D3D3D3"/>
<path d="M122.47 31.0057C122.711 30.6279 122.954 30.25 123.193 29.8713C123.536 29.33 123.877 28.7869 124.218 28.2447C124.874 27.2064 125.529 26.1691 126.185 25.1309C126.752 24.233 127.318 23.3361 127.883 22.4372C128.447 21.5403 129.008 20.6424 129.572 19.7464C130.026 19.0254 130.481 18.3063 130.935 17.5863C131.14 17.2594 131.33 16.921 131.553 16.6076C131.699 16.4009 131.802 16.1673 131.96 15.9712C132.291 16.4913 132.624 17.0104 132.954 17.5305C133.871 18.9715 134.789 20.4116 135.703 21.8546C136.427 22.9977 137.15 24.1407 137.865 25.2905C138.431 26.1999 139.001 27.1064 139.58 28.0082C140.114 28.8398 140.632 29.6819 141.156 30.5192C141.262 30.6875 141.362 30.8586 141.464 31.0287C141.455 31.1095 141.402 31.1681 141.362 31.2325C139.995 33.3975 138.626 35.5615 137.26 37.7274C135.801 40.0394 134.342 42.3515 132.885 44.6645C132.586 45.1384 132.292 45.6152 131.987 46.1045C131.734 45.7796 131.552 45.4297 131.335 45.1038C131.152 44.8288 130.986 44.5424 130.811 44.2617C130.64 43.9886 130.469 43.7156 130.295 43.4445C129.998 42.9792 129.696 42.5168 129.402 42.0506C129.277 41.8525 129.153 41.6526 129.03 41.4536C128.7 40.9239 128.371 40.3951 128.03 39.8741C127.759 39.4617 127.514 39.031 127.251 38.6128C126.957 38.1456 126.653 37.6851 126.358 37.2188C126.026 36.6911 125.701 36.1575 125.369 35.6297C124.431 34.1387 123.491 32.6496 122.552 31.1595C122.522 31.1114 122.497 31.0585 122.471 31.0086L122.47 31.0057Z" fill="white"/>
</svg>
